<svg width="557" height="404" viewBox="0 0 557 404" fill="none" xmlns="http://www.w3.org/2000/svg">
<path d="M476.081 357.805C468.357 360.075 459.761 362.338 451.309 363.669C443.288 364.666 434.435 366.459 425.9 366.338C417.364 366.216 409.141 364.151 402.383 357.435C395.457 349.238 397.179 338.058 405.639 330.347C439.477 315.221 474.425 299.701 512.115 299.298C520.078 299.212 528.091 300.911 535.191 304.594C548.055 311.287 556.766 324.164 556.999 338.776C557.167 366.467 527.077 370.094 500.39 365.107C491.497 363.444 482.984 360.816 476.127 357.795C476.117 357.79 476.104 357.793 476.081 357.805Z" fill="#4761FF"/>
<path d="M43.4335 250.188C38.4133 239.316 7.23602 171.802 37.2239 138.242C64.5409 107.668 128.535 121.027 165.504 138.386C222.977 165.358 222.356 205.345 261.525 209.141C310.13 213.855 332.377 154.349 383.978 162.479C404.724 165.748 431.31 180.109 434.605 199.195C444.786 258.208 237.794 394.043 116.207 329.67C69.4054 304.869 46.2054 256.189 43.4335 250.188Z" fill="#5970FF"/>
</svg>
