<svg width="93" height="84" viewBox="0 0 93 84" fill="none" xmlns="http://www.w3.org/2000/svg">
<path d="M31.702 71.154C32.2547 71.6516 32.8806 72.0612 33.5577 72.3686C33.7444 72.4589 33.9385 72.5447 34.1402 72.626C35.8165 73.3118 37.6232 73.6201 39.432 73.529H39.5223C40.3319 73.4854 41.1196 73.2502 41.8206 72.8427C42.3188 72.5402 42.6945 72.0718 42.8816 71.5198C42.9569 71.3042 43.0569 71.0982 43.1796 70.9057C43.5637 70.3353 44.0291 69.8241 44.5613 69.3886C45.7307 68.3636 47.3923 67.2439 49.2661 65.8983C54.3999 62.223 61.1411 56.868 63.9224 47.1287C66.5864 37.8093 64.97 25.3112 53.3343 21.4913L53.0634 21.4056C41.5226 17.7573 30.1488 23.311 26.5276 36.1341C23.0644 48.3929 29.8553 59.0217 30.9615 65.5145C31.1979 66.5864 31.1653 67.7002 30.8667 68.7565L30.8396 68.8513C30.6093 69.6685 30.975 70.4632 31.702 71.154Z" fill="#FFAE00"/>
<path opacity="0.75" d="M33.1334 74.5495C33.1334 74.5495 39.6578 47.8195 35.2555 45.6522C30.8532 43.485 30.2572 50.023 33.2101 51.8742C37.1835 54.3711 44.0918 55.2109 45.2161 50.5196C46.092 46.8668 41.5091 45.878 40.2854 49.6572C39.4592 52.2219 41.0033 54.5788 44.322 55.369C49.9389 56.701 53.8852 54.9174 52.1378 50.8538C51.1806 48.6278 48.2231 49.5669 47.5955 52.4025C46.9679 55.238 38.809 76.1886 38.809 76.1886" stroke="white" stroke-width="3.06" stroke-linecap="round" stroke-linejoin="round"/>
<path d="M33.6076 82.8756L33.156 82.7402C31.4056 82.2392 29.9257 81.0635 29.0418 79.4718C28.1578 77.88 27.9422 76.0023 28.4422 74.2516C28.4422 74.2516 29.8871 65.8714 30.9346 65.5147C31.9821 65.158 44.3447 68.7204 44.6156 69.4248C44.8865 70.1292 42.1187 78.1572 42.1187 78.1572C41.8712 79.0269 41.4545 79.8391 40.8924 80.5473C40.3303 81.2555 39.6339 81.8457 38.8431 82.2841C38.0523 82.7225 37.1828 83.0004 36.2843 83.1019C35.3859 83.2034 34.4762 83.1265 33.6076 82.8756Z" fill="#3B3B4C"/>
<path d="M28.848 69.7058L28.8799 69.5143C28.9679 68.9854 29.468 68.6281 29.9969 68.7161L43.8041 71.0142C44.3329 71.1023 44.6903 71.6024 44.6023 72.1312L44.5704 72.3228C44.4824 72.8516 43.9823 73.209 43.4534 73.121L29.6462 70.8228C29.1174 70.7348 28.76 70.2347 28.848 69.7058Z" fill="#AAAAAF"/>
<path d="M28.0508 72.7803L28.0826 72.5888C28.1705 72.0599 28.6705 71.7023 29.1993 71.7902L43.0073 74.0835C43.5362 74.1713 43.8938 74.6713 43.8059 75.2002L43.7741 75.3917C43.6863 75.9206 43.1863 76.2781 42.6574 76.1903L28.8494 73.897C28.3205 73.8091 27.963 73.3092 28.0508 72.7803Z" fill="#AAAAAF"/>
<path d="M27.317 75.8775L27.3489 75.686C27.4369 75.1571 27.937 74.7998 28.4659 74.8878L42.2731 77.1859C42.8019 77.274 43.1593 77.7741 43.0713 78.3029L43.0394 78.4945C42.9514 79.0233 42.4513 79.3807 41.9224 79.2926L28.1153 76.9945C27.5864 76.9065 27.229 76.4064 27.317 75.8775Z" fill="#AAAAAF"/>
<g opacity="0.65">
<path opacity="0.65" d="M41.2834 29.5917C42.1187 29.4021 42.7283 29.1854 43.2791 29.0499C43.7189 28.9229 44.1762 28.8665 44.6337 28.8828C44.8889 28.9048 45.146 28.8762 45.3903 28.7988C45.6345 28.7214 45.8611 28.5966 46.0571 28.4316C46.2531 28.2667 46.4147 28.0647 46.5326 27.8372C46.6506 27.6098 46.7226 27.3614 46.7445 27.1061C46.7665 26.8509 46.7379 26.5938 46.6605 26.3495C46.5831 26.1053 46.4583 25.8787 46.2933 25.6827C46.1283 25.4867 45.9264 25.3251 45.6989 25.2071C45.4715 25.0892 45.2231 25.0172 44.9678 24.9953H44.9181C44.0407 24.9504 43.1619 25.0511 42.3174 25.2933C41.5814 25.4874 40.9267 25.7177 40.4661 25.8215H40.439C39.9509 25.9449 39.5302 26.2538 39.2665 26.6826C39.0027 27.1114 38.9167 27.6262 39.0267 28.1175C39.1367 28.6087 39.4341 29.0377 39.8556 29.313C40.277 29.5883 40.7893 29.6883 41.2834 29.5917Z" fill="white"/>
<path opacity="0.65" d="M33.26 40.1346C33.457 38.528 33.9033 36.962 34.5829 35.493C35.2873 34.0538 36.2378 32.7489 37.3914 31.637C37.7506 31.2855 37.9556 30.8057 37.9611 30.3032C37.9666 29.8006 37.7722 29.3164 37.4208 28.9572C37.0693 28.5979 36.5895 28.393 36.0869 28.3875C35.5844 28.382 35.1002 28.5764 34.741 28.9278C33.2639 30.3339 32.0418 31.9853 31.1288 33.8088C30.2637 35.6323 29.6864 37.5789 29.4176 39.5792C29.353 40.0821 29.4886 40.5903 29.7952 40.9941C30.1018 41.3979 30.5548 41.665 31.0566 41.7379C31.5584 41.8108 32.0687 41.6835 32.4775 41.3836C32.8863 41.0837 33.1608 40.6351 33.2419 40.1346H33.26Z" fill="white"/>
</g>
<path opacity="0.12" d="M49.2708 65.8894C54.4045 62.214 61.1457 56.859 63.9271 47.1197C66.5911 37.8003 64.9746 25.3022 53.339 21.4824L53.068 21.3966C64.4689 44.8756 59.8138 51.1427 49.2708 65.8894Z" fill="#E84E19"/>
<path d="M70.0902 50.3752L91.5374 52.2806C91.7045 52.2998 91.8723 52.2518 92.0039 52.1472C92.1356 52.0426 92.2204 51.89 92.2395 51.723C92.2587 51.5559 92.2107 51.3881 92.1061 51.2564C92.0016 51.1248 91.849 51.04 91.6819 51.0209L70.3611 48.0318C70.0603 48.0071 69.7614 48.0983 69.5256 48.2868C69.2898 48.4753 69.135 48.7468 69.0928 49.0457C69.0507 49.3447 69.1245 49.6484 69.299 49.8947C69.4735 50.141 69.7356 50.3113 70.0315 50.3707L70.0902 50.3752Z" fill="white"/>
<path d="M71.6073 34.6487L91.8038 29.3614C91.9307 29.3274 92.0391 29.245 92.1058 29.1318C92.1725 29.0187 92.1922 28.8839 92.1605 28.7564C92.1294 28.6342 92.0526 28.5286 91.9459 28.4614C91.8392 28.3941 91.7107 28.3704 91.5871 28.3952L71.0835 32.3505C70.7764 32.4104 70.5056 32.5898 70.3307 32.8493C70.1559 33.1089 70.0913 33.4272 70.1512 33.7344C70.211 34.0416 70.3905 34.3123 70.65 34.4872C70.9096 34.6621 71.2279 34.7267 71.535 34.6668L71.6073 34.6487Z" fill="white"/>
<path d="M65.6563 21.4914L75.6711 10.542C75.7573 10.4564 75.806 10.34 75.8064 10.2185C75.8068 10.097 75.759 9.98032 75.6733 9.8941C75.5877 9.80788 75.4714 9.75922 75.3499 9.75879C75.2283 9.75837 75.1116 9.80624 75.0254 9.89186L63.9948 19.8253C63.7805 20.0395 63.6565 20.3278 63.6485 20.6307C63.6405 20.9336 63.749 21.228 63.9516 21.4533C64.1543 21.6785 64.4357 21.8174 64.7378 21.8413C65.0398 21.8652 65.3395 21.7723 65.5751 21.5817C65.6061 21.5554 65.6334 21.525 65.6563 21.4914Z" fill="white"/>
<path d="M53.3749 15.098L55.3886 0.960875C55.3981 0.893107 55.3939 0.824116 55.3761 0.75803C55.3584 0.691943 55.3275 0.630105 55.2854 0.576184C55.2433 0.522263 55.1907 0.477366 55.1309 0.444165C55.0711 0.410964 55.0052 0.39013 54.9371 0.382916C54.8111 0.365915 54.6832 0.39619 54.5781 0.467893C54.4731 0.539595 54.3983 0.647653 54.3682 0.77123L51.0405 14.6555C50.9837 14.9542 51.0441 15.2633 51.2091 15.5187C51.3742 15.7741 51.6312 15.9562 51.9269 16.027C52.2226 16.0979 52.5342 16.0522 52.7971 15.8994C53.06 15.7465 53.254 15.4984 53.3388 15.2063C53.3527 15.1709 53.3648 15.1347 53.3749 15.098Z" fill="white"/>
<path d="M41.4232 14.4115L38.5516 0.414338C38.5318 0.286205 38.462 0.171166 38.3574 0.0945342C38.2528 0.017902 38.1221 -0.014046 37.994 0.00571282C37.8658 0.0254717 37.7508 0.0953291 37.6741 0.199904C37.5975 0.30448 37.5656 0.435214 37.5853 0.563347L39.0889 14.7817C39.1218 15.0931 39.2771 15.3786 39.5205 15.5755C39.764 15.7723 40.0756 15.8644 40.387 15.8315C40.6983 15.7986 40.9839 15.6433 41.1807 15.3998C41.3776 15.1564 41.4697 14.8447 41.4368 14.5334C41.4349 14.4925 41.4304 14.4518 41.4232 14.4115Z" fill="white"/>
<path d="M28.5278 19.771L16.2555 8.82613C16.1675 8.74051 16.049 8.69336 15.9263 8.69505C15.8035 8.69674 15.6864 8.74714 15.6007 8.83516C15.5151 8.92318 15.468 9.04161 15.4697 9.16439C15.4714 9.28717 15.5218 9.40425 15.6098 9.48987L26.8978 21.4597C27.0039 21.5726 27.1313 21.6636 27.2726 21.7273C27.4139 21.791 27.5663 21.8263 27.7212 21.8312C27.8761 21.836 28.0305 21.8102 28.1754 21.7554C28.3204 21.7006 28.4532 21.6177 28.5662 21.5116C28.6791 21.4055 28.77 21.2781 28.8338 21.1368C28.8975 20.9955 28.9328 20.8431 28.9377 20.6882C28.9425 20.5332 28.9167 20.3789 28.8619 20.2339C28.807 20.0889 28.7242 19.9562 28.6181 19.8432C28.5775 19.8161 28.5503 19.7935 28.5278 19.771Z" fill="white"/>
<path d="M22.9562 32.3911L0.511185 24.2637C0.411623 24.2505 0.310457 24.2708 0.223749 24.3215C0.137041 24.3722 0.0697384 24.4503 0.0324383 24.5436C-0.00486374 24.6368 -0.00999641 24.7399 0.0178318 24.8364C0.04566 24.9329 0.104822 25.0174 0.186049 25.0764L22.0848 34.5584C22.3683 34.6622 22.6808 34.6538 22.9583 34.5347C23.2357 34.4157 23.4572 34.195 23.5773 33.918C23.6973 33.6409 23.7069 33.3284 23.604 33.0446C23.5011 32.7607 23.2936 32.5269 23.024 32.3911H22.9562Z" fill="white"/>
</svg>
