<svg width="322" height="343" viewBox="0 0 322 343" fill="none" xmlns="http://www.w3.org/2000/svg">
<path d="M14.0056 299.921L0.03125 318.896L23.563 336.408C25.1183 334.075 16.2764 320.482 16.2764 320.482L25.7326 308.693L14.0056 299.921Z" fill="#455A64"/>
<path d="M9.79084 314.059C9.51412 313.958 9.20987 313.963 8.93695 314.074C8.66403 314.185 8.44182 314.392 8.3133 314.657C8.204 314.932 8.20349 315.237 8.31189 315.512C8.42028 315.786 8.62939 316.009 8.89654 316.135C9.18974 316.238 9.51077 316.229 9.79788 316.11C10.085 315.991 10.3179 315.77 10.4518 315.489C10.5378 315.191 10.5047 314.872 10.3597 314.598C10.2146 314.323 9.9689 314.116 9.67419 314.02" fill="white"/>
<path d="M0 318.942L1.48531 316.905L23.4695 334.604C23.4695 334.604 24.1694 335.848 23.4695 336.494L0 318.942Z" fill="#263238"/>
<path d="M16.7895 320.653C16.704 320.77 16.0897 320.396 15.2342 320.342C14.3788 320.288 13.7334 320.552 13.6789 320.428C13.6245 320.303 14.2777 319.767 15.2887 319.844C16.2996 319.922 16.8518 320.568 16.7895 320.653Z" fill="#263238"/>
<path d="M18.4616 323.515C18.3994 323.647 17.7617 323.468 17.0074 323.663C16.253 323.857 15.7631 324.293 15.6465 324.199C15.5298 324.106 15.9498 323.422 16.8907 323.181C17.8317 322.939 18.5393 323.406 18.4616 323.515Z" fill="#263238"/>
<path d="M17.6603 327.512C17.5358 327.458 17.808 326.734 18.5701 326.353C19.3322 325.972 20.0554 326.097 20.0321 326.229C20.0088 326.361 19.4255 326.447 18.8112 326.797C18.1968 327.147 17.7847 327.582 17.6603 327.512Z" fill="#263238"/>
<path d="M18.6094 317.729C18.4772 317.799 18.0728 317.247 17.3884 316.812C16.7041 316.376 16.0509 316.197 16.0587 316.034C16.0664 315.871 16.8363 315.839 17.6606 316.368C18.4849 316.897 18.7338 317.683 18.6094 317.729Z" fill="#263238"/>
<path d="M70.8984 220.492C71.3184 222.871 71.9871 243.114 72.4148 253.791C72.8426 264.468 71.7772 269.717 70.5563 272.112C69.3353 274.507 23.2906 308.436 19.7834 316.563L8.11865 307.161C8.11865 307.161 25.227 276.451 32.5213 270.868C39.8157 265.284 53.8523 260.16 53.8523 260.16L49.863 201.688L68.9854 200.646L70.8984 220.492Z" fill="#263238"/>
<path d="M28.104 318.686L27.9019 342.225L57.2271 342.63C57.0949 339.83 42.0007 333.99 42.0007 333.99L42.7783 318.896L28.104 318.686Z" fill="#455A64"/>
<path d="M32.9489 332.629C32.6659 332.711 32.4231 332.894 32.2667 333.144C32.1103 333.393 32.0514 333.692 32.1013 333.982C32.1734 334.268 32.352 334.516 32.6005 334.675C32.849 334.834 33.1489 334.892 33.4388 334.837C33.7376 334.749 33.9932 334.553 34.1568 334.287C34.3203 334.022 34.3803 333.706 34.3253 333.399C34.2211 333.108 34.0079 332.869 33.7307 332.733C33.4535 332.596 33.1341 332.573 32.84 332.668" fill="white"/>
<path d="M27.8945 342.311V339.783L56.0844 341.245C56.0844 341.245 57.3753 341.844 57.212 342.762L27.8945 342.311Z" fill="#263238"/>
<path d="M42.4519 333.881C42.4519 334.029 41.7287 334.083 41.021 334.534C40.3134 334.985 39.9245 335.576 39.7923 335.522C39.6601 335.467 39.8856 334.635 40.7566 334.106C41.6276 333.578 42.5141 333.749 42.4519 333.881Z" fill="#263238"/>
<path d="M45.5628 335.226C45.5628 335.366 44.964 335.6 44.4741 336.198C43.9842 336.797 43.8286 337.443 43.6964 337.427C43.5642 337.412 43.4709 336.611 44.1008 335.872C44.7307 335.133 45.5628 335.063 45.5628 335.226Z" fill="#263238"/>
<path d="M47.2348 338.904C47.1026 338.904 46.9159 338.212 47.2892 337.435C47.6625 336.657 48.3468 336.354 48.4012 336.47C48.4557 336.587 48.0435 337.007 47.7402 337.652C47.4369 338.298 47.3747 338.889 47.2348 338.904Z" fill="#263238"/>
<path d="M42.2656 330.42C42.2034 330.553 41.5502 330.343 40.7103 330.42C39.8705 330.498 39.2639 330.708 39.155 330.584C39.0462 330.459 39.6916 329.962 40.6481 329.923C41.6046 329.884 42.3356 330.311 42.2656 330.42Z" fill="#263238"/>
<path d="M73.0134 198.228C73.0134 199.604 75.2452 234.451 63.8527 259.662C63.8527 259.662 59.91 267.547 59.1868 270.992C58.4635 274.437 43.7271 331.579 43.7271 331.579L26.6965 330.957C26.6965 330.957 23.9747 302.332 26.6965 285.76C29.4183 269.188 34.473 271.132 34.473 260.432C34.473 249.731 31.9301 227.545 31.9301 227.545C31.9301 227.545 28.2129 221.487 26.9453 209.737C25.9111 200.195 30.4059 189.969 30.4059 189.969L34.8463 182.107L72.4146 180.139L73.0134 198.228Z" fill="#263238"/>
<path d="M73.0136 198.227C73.0136 198.227 73.0136 197.823 73.0136 197.038C73.0136 196.252 72.9669 195.086 72.9358 193.554C72.8658 190.482 72.7492 185.956 72.6092 180.108V180.023H72.5159L34.9476 181.936H34.8698L34.8231 182.006C33.4467 184.448 31.9303 187.115 30.375 189.868C29.2182 192.658 28.3151 195.547 27.6765 198.5C26.971 201.608 26.655 204.793 26.7356 207.979C26.9723 211.307 27.4926 214.608 28.2909 217.848C29.061 221.249 30.2713 224.535 31.8914 227.623V227.545C32.5368 233.346 33.1356 239.357 33.6411 245.548C33.89 248.658 34.1077 251.769 34.2632 254.965C34.341 256.52 34.4032 258.153 34.411 259.763C34.411 260.541 34.411 261.373 34.3643 262.174C34.309 262.977 34.2103 263.776 34.0688 264.569C33.7505 266.165 33.1865 267.703 32.3969 269.126C31.6192 270.58 30.8416 272.019 30.0639 273.535C28.6555 276.613 27.6292 279.851 27.0077 283.178C25.6546 289.866 25.3825 296.818 25.3047 303.825C25.3047 313.071 25.7402 322.154 26.5023 330.934V331.12H26.6811L43.7117 331.742H43.875L43.9139 331.579C48.852 312.441 53.4557 294.555 57.515 278.473L58.9848 272.524C59.2414 271.537 59.4047 270.557 59.708 269.624C60.0113 268.69 60.3534 267.765 60.7111 266.863C61.4421 265.059 62.2664 263.309 63.0441 261.606L63.6507 260.339C63.8661 259.924 64.0582 259.499 64.2261 259.063C64.5761 258.2 64.926 257.352 65.276 256.505C67.6944 250.233 69.4941 243.74 70.6495 237.118C72.315 227.684 73.1735 218.126 73.2158 208.547C73.2624 201.844 72.9903 198.204 72.9903 198.204C72.9903 198.204 72.9903 198.43 72.9903 198.873C72.9903 199.316 72.9902 199.993 73.0369 200.864C73.0836 202.613 73.1147 205.195 73.0369 208.547C72.965 218.118 72.0988 227.667 70.4473 237.095C69.2652 243.695 67.4421 250.165 65.0038 256.411L63.9617 258.954C63.7906 259.39 63.5962 259.802 63.3863 260.222C63.1763 260.642 62.9741 261.069 62.7719 261.497C61.9943 263.2 61.17 264.95 60.439 266.762C60.0735 267.672 59.7235 268.597 59.4202 269.546C59.117 270.495 58.9381 271.498 58.6892 272.462C58.1993 274.422 57.7094 276.397 57.2039 278.411C53.0746 294.477 48.4787 312.363 43.5562 331.501L43.7583 331.354L26.7278 330.724L26.93 330.91C26.1523 322.146 25.7013 313.071 25.7324 303.84C25.8102 296.841 26.0823 289.92 27.4277 283.279C28.0472 279.983 29.0629 276.774 30.4527 273.722C31.1526 272.221 32.008 270.798 32.7857 269.32C33.5701 267.858 34.126 266.285 34.4343 264.654C34.5818 263.844 34.683 263.026 34.7376 262.205C34.7376 261.427 34.8154 260.572 34.7843 259.771C34.7843 258.153 34.7143 256.544 34.6365 254.949C34.481 251.761 34.2555 248.619 33.9988 245.524C33.4804 239.303 32.892 233.297 32.2336 227.506V227.459C30.613 224.411 29.3973 221.164 28.6175 217.801C27.8237 214.585 27.3034 211.307 27.0622 208.003C26.9784 204.845 27.2867 201.69 27.9798 198.609C28.6064 195.685 29.4885 192.823 30.616 190.054L35.0487 182.185L34.9242 182.262L72.4926 180.233L72.3915 180.147C72.5781 185.987 72.7181 190.513 72.8114 193.585C72.8658 195.14 72.9047 196.276 72.9358 197.069C72.9669 197.862 73.0136 198.227 73.0136 198.227Z" fill="#455A64"/>
<path d="M60.7967 126.87C60.7967 126.87 50.6873 125.082 51.6282 138.092C52.2193 145.868 54.5055 159.213 55.7731 167.728C56.2086 170.675 57.1729 175.948 61.0689 179.043L88.9866 198.36L97.7974 187.823L72.8659 164.081L68.9776 140.596L60.7967 126.87Z" fill="#455A64"/>
<path d="M61.9865 79.978C63.589 81.2683 64.8568 82.9259 65.6825 84.8102C66.5083 86.6946 66.8677 88.7502 66.7302 90.8029C66.5747 92.7937 66.0225 95.0567 67.3212 96.5731C68.6199 98.0895 71.1084 98.0351 72.3371 99.5748C73.7757 101.395 72.5704 104.101 73.1147 106.364C73.3922 107.421 74.0366 108.345 74.9328 108.97C75.8289 109.595 76.9183 109.882 78.0062 109.778C75.454 111.866 72.3761 113.211 69.1098 113.666L66.5591 110.485C67.5079 111.605 67.2512 113.386 66.3414 114.529C65.353 115.593 64.0785 116.349 62.6709 116.706C59.3207 117.737 55.7779 117.981 52.3182 117.418C48.8585 116.856 45.5753 115.503 42.7241 113.464" fill="#263238"/>
<path d="M24.6359 97.5295C25.1336 95.9742 25.9734 94.5978 26.3078 93.0347C27.0233 89.6675 25.3824 85.8725 27.0155 82.8397C28.182 80.6856 30.6549 79.628 33.0034 78.9048C35.3519 78.1816 37.856 77.575 39.6057 75.8564C40.881 74.5966 41.612 72.8546 42.8874 71.5948C44.7071 69.7907 47.3977 69.1764 49.9484 69.0208C52.5823 68.7663 55.2372 69.1976 57.655 70.2728C58.8555 70.8206 59.9105 71.643 60.7345 72.6738C61.5586 73.7045 62.1286 74.9146 62.3986 76.2063C62.6008 77.4661 62.4453 78.7959 62.8497 80.0168C63.2851 81.3544 64.335 82.3964 64.9882 83.6484C65.6425 84.993 65.8317 86.5168 65.5263 87.9805C65.2209 89.4443 64.438 90.7653 63.3007 91.736L45.2747 115.019C41.4876 116.45 32.3113 114.723 29.3873 111.908C26.4634 109.093 23.3839 101.379 24.6359 97.5295Z" fill="#263238"/>
<path d="M62.8263 88.7809C62.0487 83.4929 58.0593 77.2483 52.8102 78.2126L36.6039 83.6562C35.0486 83.9517 36.1529 86.5568 36.3084 88.1666L39.8312 124.716C39.8312 124.716 37.6382 126.271 36.8605 125.976C36.8163 125.96 36.7683 125.959 36.7232 125.972C36.6782 125.985 36.6383 126.012 36.6092 126.049C36.5801 126.086 36.5632 126.131 36.5609 126.178C36.5585 126.224 36.5709 126.271 36.5961 126.31C38.5636 129.149 47.7321 141.49 57.2272 137.703C59.3424 136.855 57.0017 130.191 57.2272 127.726L56.9473 121.419C56.7373 118.199 56.6362 116.877 56.6362 116.909C56.6362 116.94 63.3396 115.26 64.0628 106.294C64.4283 101.853 63.6506 94.6522 62.8263 88.7809Z" fill="#FFBF9D"/>
<path d="M61.6989 96.9152C61.723 97.2112 61.6309 97.505 61.4422 97.7343C61.2536 97.9636 60.983 98.1105 60.6879 98.1439C60.5442 98.167 60.3973 98.161 60.2559 98.1263C60.1145 98.0916 59.9815 98.0289 59.8647 97.9419C59.748 97.8549 59.6499 97.7453 59.5762 97.6197C59.5026 97.4942 59.4549 97.3551 59.4359 97.2107C59.4118 96.9147 59.5038 96.621 59.6925 96.3916C59.8812 96.1623 60.1518 96.0154 60.4469 95.982C60.5906 95.9589 60.7375 95.9649 60.8789 95.9996C61.0203 96.0343 61.1533 96.097 61.2701 96.184C61.3868 96.2711 61.4849 96.3806 61.5585 96.5062C61.6322 96.6318 61.6799 96.7709 61.6989 96.9152Z" fill="#263238"/>
<path d="M50.6559 97.6073C50.6822 97.9025 50.5919 98.1963 50.4045 98.4259C50.2171 98.6555 49.9473 98.8026 49.6528 98.836C49.5091 98.858 49.3626 98.8512 49.2216 98.816C49.0806 98.7809 48.9481 98.7181 48.8316 98.6313C48.7151 98.5444 48.617 98.4353 48.543 98.3103C48.4691 98.1852 48.4207 98.0467 48.4007 97.9028C48.3766 97.6068 48.4687 97.313 48.6574 97.0837C48.8461 96.8544 49.1166 96.7075 49.4117 96.6741C49.555 96.6511 49.7015 96.6571 49.8424 96.6919C49.9833 96.7267 50.1158 96.7895 50.2319 96.8766C50.348 96.9637 50.4454 97.0733 50.5183 97.1988C50.5911 97.3243 50.6379 97.4633 50.6559 97.6073Z" fill="#263238"/>
<path d="M62.1032 93.1669C61.9787 93.3768 60.9211 92.7081 59.5991 92.9025C58.2771 93.0969 57.4295 93.999 57.2662 93.8357C57.1029 93.6724 57.2662 93.4002 57.6472 92.988C58.1257 92.4509 58.7799 92.1018 59.4925 92.0035C60.2051 91.9052 60.9294 92.064 61.5355 92.4514C61.971 92.7547 62.1654 93.0736 62.1032 93.1669Z" fill="#263238"/>
<path d="M50.2288 94.1545C50.0732 94.3489 49.039 93.5946 47.6159 93.6568C46.1928 93.719 45.1818 94.52 45.0185 94.3411C44.8552 94.1623 45.0885 93.9212 45.5317 93.5635C46.1136 93.0832 46.8384 92.8096 47.5925 92.7858C48.343 92.7563 49.0819 92.978 49.6922 93.4157C50.1354 93.7345 50.2988 94.0612 50.2288 94.1545Z" fill="#263238"/>
<path d="M54.6845 102.53C55.3124 102.273 55.9712 102.101 56.6442 102.016C56.9474 101.962 57.2429 101.876 57.2741 101.659C57.2781 101.334 57.1802 101.015 56.9941 100.749C56.6442 100.018 56.2787 99.248 55.8898 98.4159C54.3345 95.1265 53.2069 92.4202 53.3391 92.358C53.4713 92.2958 54.8322 94.9087 56.372 98.1904C56.7453 99.0069 57.103 99.7457 57.4374 100.523C57.6648 100.884 57.7558 101.314 57.694 101.736C57.6584 101.85 57.5971 101.954 57.5148 102.041C57.4325 102.127 57.3315 102.193 57.2196 102.234C57.0511 102.292 56.8761 102.328 56.6986 102.343C56.037 102.485 55.3609 102.547 54.6845 102.53Z" fill="#263238"/>
<path d="M56.6364 116.924C52.472 117.306 48.2832 116.526 44.5361 114.669C44.5361 114.669 47.9967 120.657 56.7919 119.148L56.6364 116.924Z" fill="#FF9A6C"/>
<path d="M50.9594 106.091C51.0981 105.784 51.312 105.517 51.5815 105.314C51.9112 105.157 52.2856 105.121 52.6391 105.213C53.1643 105.289 53.6502 105.535 54.0233 105.913C54.2064 106.103 54.3354 106.339 54.3969 106.596C54.4584 106.853 54.4502 107.122 54.3732 107.375C54.2333 107.888 53.4712 108.152 52.9501 108.261C52.4104 108.34 51.8601 108.227 51.3948 107.942C51.1925 107.85 51.0158 107.71 50.8802 107.534C50.7447 107.357 50.6544 107.151 50.6172 106.931C50.6517 106.625 50.7701 106.335 50.9594 106.091Z" fill="#FF9A6C"/>
<path d="M51.2081 104.373C51.4025 104.373 51.5114 105.671 52.7167 106.527C53.9221 107.382 55.3219 107.126 55.3452 107.305C55.3685 107.483 55.0575 107.585 54.4587 107.647C53.6817 107.718 52.9047 107.511 52.2657 107.063C51.6492 106.638 51.2246 105.987 51.0837 105.252C51.0059 104.715 51.1148 104.373 51.2081 104.373Z" fill="#263238"/>
<path d="M50.1198 89.3719C50.0187 89.7062 48.79 89.644 47.3669 89.9318C45.9438 90.2195 44.8162 90.7094 44.6062 90.4061C44.5129 90.2739 44.684 89.9473 45.1272 89.5896C45.721 89.1472 46.4084 88.847 47.1364 88.7122C47.8645 88.5774 48.6138 88.6115 49.3265 88.8119C49.8709 88.9675 50.1586 89.2085 50.1198 89.3719Z" fill="#263238"/>
<path d="M61.3487 88.7109C61.1231 89.0064 60.1433 88.7965 59.0157 88.8742C57.8881 88.952 56.8927 89.2242 56.6439 88.952C56.535 88.8198 56.6439 88.5243 57.0716 88.2288C57.6339 87.8582 58.2881 87.6509 58.9613 87.63C59.6302 87.5818 60.299 87.7248 60.8898 88.0421C61.2942 88.2754 61.4497 88.5554 61.3487 88.7109Z" fill="#263238"/>
<path d="M33.0191 84.9317C33.7968 83.6719 35.3054 83.0264 36.7052 82.4898C42.7505 80.1556 49.0524 78.5501 55.4777 77.7073C56.2553 79.0215 55.5399 80.8179 54.3345 81.7744C53.1292 82.7309 51.5739 83.112 50.1352 83.6485C48.6966 84.1851 47.2112 85.025 46.6124 86.4481C46.0137 87.8712 46.5191 89.7453 45.9592 91.2851C45.0027 93.9446 41.2933 94.8001 40.3679 97.4518C39.6525 99.466 40.8189 101.604 41.1456 103.72C41.2949 104.793 41.2136 105.886 40.9069 106.926C40.6003 107.965 40.0755 108.928 39.3675 109.748C38.6594 110.569 37.7845 111.229 36.8011 111.685C35.8177 112.14 34.7484 112.381 33.6646 112.391C33.2291 104.775 32.791 97.1641 32.3503 89.5587C32.2181 87.9723 32.1559 86.2614 33.0191 84.9317Z" fill="#263238"/>
<path d="M17.6838 104.163C18.8892 103.082 20.3978 102.149 20.8722 100.609C21.5721 98.3617 19.7679 95.7255 20.9344 93.6802C21.992 91.8139 25.1104 91.915 26.098 90.0097C26.8756 88.5166 25.9813 87.2024 26.2691 85.896C26.5568 84.5895 28.4232 83.4463 29.7452 83.6019L40.119 98.665C41.0833 103.72 42.0554 106.441 40.9745 109.365C40.2595 110.94 39.7197 112.588 39.3647 114.28C39.1314 115.991 39.5747 117.927 40.9667 118.946C34.7455 119.436 28.9286 116.185 23.5473 113.036L17.8782 109.708C17.2576 109.411 16.7225 108.961 16.3229 108.401C15.4753 107.017 16.4862 105.236 17.6838 104.163Z" fill="#263238"/>
<path d="M23.415 111.504C23.6321 111.574 23.8565 111.618 24.0838 111.636C24.7326 111.698 25.3871 111.651 26.0202 111.496C27.0307 111.254 27.9608 110.753 28.7186 110.042C29.7197 109.079 30.3477 107.792 30.4917 106.41C30.5852 105.609 30.5164 104.797 30.2895 104.023C30.0106 103.198 29.6236 102.413 29.1386 101.69C28.6242 100.956 28.2232 100.148 27.9487 99.2948C27.803 98.8585 27.7574 98.3949 27.8153 97.9385C27.8732 97.4822 28.0331 97.0447 28.2831 96.6586C28.843 95.8809 29.8929 95.7176 30.8727 95.3288C31.4019 95.1386 31.8623 94.7947 32.1947 94.3412C32.5008 93.8562 32.6502 93.2887 32.6224 92.7159C32.4879 91.6178 32.251 90.5348 31.9148 89.4808C31.7954 88.9693 31.7954 88.4371 31.9148 87.9255C32.0517 87.4097 32.369 86.96 32.8091 86.658C33.7553 86.1124 34.8274 85.8229 35.9197 85.8181C37.0501 85.7807 38.1525 85.457 39.1236 84.8772C40.0685 84.3011 40.8356 83.4748 41.3399 82.4898C41.7538 81.5439 42.0162 80.5388 42.1175 79.5114C42.2254 78.5602 42.4286 77.6223 42.7241 76.7118C43.0516 75.8838 43.5498 75.1339 44.1861 74.5111C45.3598 73.3973 46.875 72.7123 48.4865 72.5669C49.8301 72.452 51.1787 72.7218 52.3748 73.3446C53.2744 73.8049 54.0853 74.421 54.7699 75.1643C55.3421 75.8131 55.8378 76.5254 56.2475 77.2873C56.2475 77.2873 56.2475 77.2328 56.193 77.124C56.1292 76.9695 56.0565 76.8189 55.9753 76.6729C55.6784 76.1084 55.3155 75.5811 54.8944 75.1021C54.2103 74.3289 53.394 73.6837 52.4836 73.1968C51.275 72.5325 49.9016 72.2276 48.5254 72.3181C46.8366 72.4417 45.2415 73.1418 44.0072 74.3011C43.3272 74.958 42.7967 75.7537 42.4519 76.634C42.1436 77.5614 41.93 78.5176 41.8143 79.488C41.7064 80.4818 41.444 81.4525 41.0366 82.3653C40.5624 83.2832 39.8473 84.0547 38.9681 84.5972C38.0415 85.1407 36.9933 85.4428 35.9197 85.4759C34.7495 85.4734 33.6001 85.785 32.5913 86.378C32.0867 86.7213 31.7223 87.2347 31.5648 87.8244C31.4285 88.3997 31.4285 88.9989 31.5648 89.5742C31.8941 90.6083 32.1284 91.6703 32.2647 92.747C32.2968 93.247 32.1717 93.7446 31.907 94.1701C31.6066 94.5646 31.1989 94.8643 30.7327 95.0333C30.2739 95.2277 29.7762 95.3599 29.2941 95.5621C28.792 95.7516 28.3493 96.0709 28.011 96.4875C27.7363 96.9169 27.5603 97.4019 27.4958 97.9075C27.4312 98.4131 27.4797 98.9268 27.6377 99.4114C27.9289 100.292 28.3481 101.126 28.8819 101.884C29.3556 102.572 29.7348 103.32 30.0095 104.108C30.2299 104.844 30.3038 105.615 30.2273 106.379C30.0998 107.709 29.5111 108.953 28.5631 109.894C27.8375 110.597 26.9429 111.1 25.9657 111.356C25.1336 111.573 24.2667 111.624 23.415 111.504Z" fill="#455A64"/>
<path d="M15.125 100.796C15.0233 100.948 14.9544 101.12 14.9228 101.301C14.8194 101.834 14.9133 102.387 15.1872 102.856C15.377 103.191 15.6435 103.476 15.9648 103.688C16.3655 103.931 16.8265 104.055 17.2946 104.046C17.8635 104.034 18.4181 103.865 18.898 103.56C19.3779 103.254 19.7648 102.822 20.0164 102.312C20.3122 101.726 20.4642 101.078 20.4597 100.422C20.4409 99.7171 20.2933 99.0214 20.0242 98.3693C19.5343 97.024 18.6322 95.7097 18.6166 94.1389C18.5872 93.7521 18.6361 93.3634 18.7604 92.9959C18.8847 92.6285 19.0817 92.2899 19.3399 92.0003C19.9704 91.4797 20.7805 91.2283 21.595 91.3004C22.5014 91.3667 23.4124 91.2719 24.2857 91.0205C24.7433 90.8342 25.13 90.5075 25.39 90.0873C25.6403 89.6697 25.7968 89.2027 25.8488 88.7186C25.8936 87.79 25.8178 86.8594 25.6233 85.9502C25.484 85.0969 25.5345 84.2234 25.771 83.3917C26.2118 81.8042 27.2443 80.4461 28.6561 79.5968C29.9962 78.9142 31.4839 78.5723 32.9876 78.6014C34.324 78.6044 35.6523 78.3944 36.9225 77.9793C37.9553 77.6003 38.9019 77.0186 39.7065 76.2684C40.3227 75.6992 40.8474 75.0382 41.2618 74.3088C41.6266 73.7038 41.877 73.0369 42.0006 72.3413C41.7691 72.9979 41.4802 73.6328 41.1374 74.2388C40.1577 75.8739 38.6486 77.125 36.8603 77.7849C35.6007 78.1702 34.2892 78.3591 32.9721 78.3448C31.4246 78.3012 29.8907 78.6433 28.5084 79.3402C27.0237 80.2107 25.9277 81.6155 25.4444 83.2673C25.1956 84.1444 25.1399 85.065 25.2811 85.9658C25.4631 86.8452 25.5389 87.7434 25.5066 88.6409C25.4882 89.0676 25.3531 89.481 25.1158 89.8362C24.8786 90.1914 24.5484 90.4746 24.1613 90.655C23.3303 90.8909 22.4641 90.9778 21.6028 90.9116C20.7009 90.8327 19.8041 91.1121 19.1066 91.6893C18.8217 92.0136 18.6059 92.3925 18.4722 92.803C18.3385 93.2134 18.2897 93.6468 18.3289 94.0767C18.3633 94.884 18.5562 95.6767 18.8966 96.4096C19.1999 97.1095 19.5343 97.7627 19.7909 98.4159C20.0519 99.0352 20.1994 99.6964 20.2264 100.368C20.237 100.981 20.1038 101.588 19.8376 102.141C19.6119 102.618 19.2599 103.023 18.8198 103.314C18.3797 103.605 17.8683 103.769 17.3413 103.79C16.909 103.805 16.4809 103.7 16.1048 103.486C15.7829 103.298 15.515 103.031 15.3272 102.709C15.0546 102.276 14.9418 101.761 15.0083 101.254C15.0472 100.974 15.1483 100.803 15.125 100.796Z" fill="#263238"/>
<path d="M80.6269 104.505C80.8118 105.031 80.8118 105.604 80.6269 106.13C80.5242 106.432 80.3549 106.707 80.1314 106.935C79.9079 107.162 79.636 107.337 79.3359 107.445C78.9358 107.563 78.5108 107.567 78.1084 107.457C77.706 107.347 77.3421 107.127 77.0574 106.822C76.7308 106.463 76.5409 106.001 76.5209 105.516C76.5059 104.987 76.5876 104.46 76.7619 103.961C77.0885 102.911 77.7651 101.768 77.664 100.391C77.6149 99.6935 77.4208 99.0135 77.0941 98.3949C76.7673 97.7763 76.3152 97.2326 75.7665 96.7986C75.192 96.3386 74.5347 95.9928 73.8302 95.7798C73.1105 95.5804 72.3684 95.4733 71.6217 95.461C70.8981 95.455 70.1767 95.3795 69.4676 95.2355C68.8056 95.099 68.2133 94.7326 67.7956 94.2012C67.4257 93.6559 67.2181 93.0168 67.1968 92.3582C67.1622 91.7164 67.2145 91.0729 67.3524 90.4452C67.6937 89.2609 67.8819 88.0378 67.9123 86.8058C67.8496 85.7118 67.4625 84.6614 66.8002 83.7885C66.2402 83.0958 65.5542 82.5153 64.7783 82.0776C64.2115 81.7422 63.6684 81.368 63.153 80.9578C62.7304 80.5959 62.3863 80.1513 62.1421 79.6514C62.1421 79.6514 62.1421 79.6514 62.1421 79.7602C62.1728 79.8654 62.2145 79.9671 62.2665 80.0635C62.4605 80.4415 62.7243 80.7793 63.0442 81.0589C63.5482 81.4977 64.0865 81.8956 64.6539 82.2487C65.3958 82.69 66.0497 83.2648 66.5825 83.944C67.1989 84.7808 67.551 85.7828 67.5934 86.8213C67.5473 88.0255 67.3513 89.2193 67.0102 90.3752C66.8597 91.0327 66.7996 91.7077 66.8313 92.3815C66.8603 93.1073 67.092 93.8104 67.5001 94.4112C67.9637 95.0111 68.625 95.4272 69.3665 95.5854C70.096 95.7352 70.8381 95.8159 71.5828 95.8265C72.3026 95.8359 73.0183 95.9352 73.7135 96.122C74.3734 96.3271 74.9901 96.6513 75.5332 97.0785C76.0444 97.4815 76.4665 97.9859 76.773 98.5601C77.0795 99.1343 77.2637 99.7657 77.3141 100.415C77.4229 101.667 76.8008 102.748 76.4586 103.875C76.2789 104.416 76.1999 104.985 76.2253 105.555C76.2592 106.098 76.482 106.613 76.8553 107.009C77.1747 107.344 77.5818 107.582 78.0301 107.696C78.4785 107.81 78.9498 107.796 79.3904 107.655C79.7122 107.53 80.0014 107.333 80.2358 107.08C80.4703 106.827 80.6439 106.523 80.7435 106.193C80.8845 105.787 80.9061 105.35 80.8057 104.933C80.7719 104.781 80.7113 104.636 80.6269 104.505Z" fill="#263238"/>
<path d="M73.1925 165.418V156.818C74.1568 151.988 73.698 146.265 71.4506 141.856C69.8202 139.014 68.0179 136.274 66.0537 133.651L57.4995 122.539C52.787 125.968 45.4071 123.487 39.077 121.186C39.077 121.186 32.8558 124.646 29.9163 127.897C26.8601 131.318 37.3117 174.128 37.3117 174.128C32.5758 183.6 26.4635 192.014 25.5381 200.646L74.9967 202.551L72.897 179.875L73.1925 165.418Z" fill="#455A64"/>
<path d="M72.5081 180.116C72.4589 179.794 72.4459 179.468 72.4692 179.144C72.4692 178.436 72.4692 177.589 72.4692 176.508C72.5081 174.175 72.5548 171.165 72.6092 167.814C72.6636 164.462 72.7647 161.343 72.8736 159.119C72.928 158.007 72.9825 157.105 73.0291 156.483C73.0346 156.161 73.0763 155.84 73.1536 155.527C73.185 155.847 73.185 156.17 73.1536 156.491C73.1536 157.199 73.1536 158.046 73.1536 159.127C73.1147 161.46 73.0602 164.47 73.0058 167.821C72.9514 171.173 72.8581 174.291 72.7492 176.515C72.6948 177.627 72.6403 178.53 72.5859 179.152C72.598 179.475 72.5719 179.799 72.5081 180.116Z" fill="#263238"/>
<path d="M95.0992 187.939C95.0992 187.939 99.9206 188.204 102.876 190.07C105.831 191.936 110.652 194.845 112.635 198.445C113.545 200.102 110.956 200.452 109.672 199.495C108.389 198.539 106.437 196.719 105.465 196.501L104.493 196.276C105.381 198.284 106.37 200.246 107.456 202.155C108.459 203.71 109.33 206.292 106.313 206.408C106.313 206.408 104.283 209.052 102.23 207.093C102.23 207.093 100.628 209.496 98.0465 206.167C98.0465 206.167 96.5379 208.073 95.9157 207.342C95.2936 206.611 93.2328 205.46 92.634 203.08C91.7356 200.31 90.6974 197.587 89.5234 194.922L95.0992 187.939Z" fill="#FFBF9D"/>
<path d="M203.045 121.108C203.581 121.108 225.659 118.775 225.659 118.775C225.659 118.775 227.533 109.801 227.432 107.468C227.331 105.135 225.76 89.6986 225.76 89.6986L234.026 85.8103C234.026 85.8103 245.077 123.075 242.666 126.17C240.255 129.265 235.722 132.042 235.333 132.057C234.944 132.073 213.94 141.389 199.328 136.544C184.715 131.699 203.045 121.108 203.045 121.108Z" fill="#FFBF9D"/>
<path d="M183.697 141.226C186.947 144.453 192.546 147.136 201.894 144.803C220.371 140.184 234.221 136.249 239.727 133.294C245.232 130.339 243.086 117.134 243.553 116.535C244.945 114.731 243.413 110.858 241.43 110.252C235.776 108.541 225.939 109.218 225.441 109.731C222.54 112.779 225.184 116.481 225.184 116.481L200.821 119.677C197.825 119.537 194.824 119.727 191.87 120.245" fill="#455A64"/>
<path d="M191.87 120.245L192.453 120.12C192.842 120.05 193.417 119.949 194.179 119.856C196.384 119.578 198.608 119.485 200.828 119.576L225.184 116.31L225.068 116.582C224.268 115.405 223.874 113.998 223.948 112.577C224.014 111.842 224.254 111.133 224.648 110.508C224.846 110.195 225.069 109.898 225.317 109.622C225.414 109.55 225.522 109.492 225.635 109.451L225.915 109.381C226.102 109.334 226.281 109.319 226.46 109.28C229.477 108.932 232.521 108.869 235.551 109.093C237.141 109.19 238.722 109.408 240.279 109.746C240.667 109.832 241.056 109.949 241.461 110.05C241.875 110.182 242.255 110.405 242.573 110.703C243.191 111.29 243.662 112.015 243.949 112.818C244.258 113.623 244.367 114.49 244.268 115.345C244.197 115.791 244.03 116.215 243.778 116.59C243.708 116.667 243.716 116.877 243.708 117.08V117.702C243.763 119.374 243.84 121.077 243.794 122.788C243.806 125.216 243.409 127.63 242.619 129.926C242.214 131.077 241.517 132.103 240.597 132.905C240.121 133.277 239.598 133.586 239.042 133.822C238.529 134.095 237.985 134.305 237.487 134.553C235.356 135.463 233.218 136.21 231.11 136.886C229.003 137.563 226.934 138.216 224.889 138.815C216.755 141.148 209.336 143.038 203.161 144.585C201.686 144.975 200.191 145.284 198.682 145.511C197.33 145.699 195.964 145.772 194.599 145.728C192.407 145.681 190.244 145.211 188.23 144.344C186.967 143.787 185.789 143.054 184.731 142.167C184.358 141.865 184.01 141.535 183.689 141.179C183.689 141.179 184.047 141.521 184.785 142.104C185.857 142.959 187.04 143.666 188.3 144.204C190.302 145.03 192.442 145.471 194.607 145.503C195.957 145.535 197.307 145.452 198.643 145.254C200.142 145.017 201.627 144.701 203.091 144.305C209.313 142.75 216.669 140.837 224.78 138.457C226.81 137.858 228.878 137.221 231.001 136.521C233.124 135.821 235.232 135.082 237.339 134.188C237.852 133.947 238.389 133.737 238.894 133.465C239.414 133.236 239.902 132.944 240.349 132.594C241.217 131.839 241.874 130.872 242.254 129.786C243.02 127.52 243.401 125.141 243.381 122.749C243.428 121.046 243.381 119.358 243.296 117.678V117.041C243.296 116.932 243.296 116.823 243.296 116.706C243.29 116.644 243.29 116.582 243.296 116.52C243.313 116.472 243.334 116.425 243.358 116.38L243.397 116.318C243.616 115.999 243.759 115.634 243.817 115.252C243.908 114.461 243.804 113.66 243.514 112.919C243.253 112.177 242.821 111.505 242.254 110.96C241.978 110.701 241.649 110.507 241.29 110.392C240.901 110.291 240.512 110.182 240.131 110.089C238.594 109.755 237.034 109.54 235.465 109.443C232.467 109.214 229.454 109.271 226.468 109.614C226.289 109.614 226.11 109.661 225.939 109.708L225.69 109.762C225.636 109.783 225.584 109.809 225.534 109.84C225.3 110.095 225.089 110.371 224.904 110.664C224.534 111.236 224.31 111.89 224.251 112.569C224.184 113.906 224.549 115.228 225.293 116.341L225.449 116.582H225.177L200.805 119.693C198.598 119.581 196.385 119.643 194.187 119.879C193.41 119.957 192.842 120.042 192.453 120.097C192.064 120.151 191.87 120.245 191.87 120.245Z" fill="#263238"/>
<path d="M125.904 145.571L115.98 127.741L303.682 23.2675C305.845 22.0639 308.397 21.7686 310.777 22.4466C313.157 23.1246 315.171 24.7205 316.375 26.883L317.226 28.4119C318.429 30.5744 318.724 33.1265 318.046 35.5068C317.368 37.8871 315.773 39.9005 313.61 41.1041L125.908 145.578L125.904 145.571Z" fill="#029491"/>
<path d="M283.301 51.2766L260.318 9.984C260.207 9.78412 260.136 9.56428 260.11 9.33705C260.083 9.10981 260.102 8.87961 260.165 8.65961C260.228 8.43961 260.333 8.2341 260.475 8.05483C260.617 7.87556 260.793 7.72603 260.993 7.61478L271.539 1.74513C271.739 1.63388 271.958 1.56308 272.186 1.53679C272.413 1.51049 272.643 1.52921 272.863 1.59188C273.083 1.65455 273.289 1.75995 273.468 1.90204C273.647 2.04413 273.797 2.22013 273.908 2.42001L296.891 43.7126L283.301 51.2766Z" fill="#029491"/>
<path d="M238.08 32.0486L254.831 62.1432C255.508 63.359 257.042 63.7961 258.258 63.1194L267.444 58.0061C268.66 57.3294 269.097 55.7951 268.421 54.5792L251.67 24.4846C250.993 23.2687 249.459 22.8316 248.243 23.5084L239.057 28.6216C237.841 29.2984 237.404 30.8327 238.08 32.0486Z" fill="#029491"/>
<path d="M252.877 30.291L263.248 48.9226L284.353 37.1757L273.982 18.5441L252.877 30.291Z" fill="#029491"/>
<path d="M300.936 24.8346C300.99 24.9279 264.153 45.5357 218.676 70.856C173.199 96.1763 136.245 116.629 136.245 116.527C136.245 116.426 173.02 95.8264 218.512 70.4983C264.005 45.1702 300.881 24.7335 300.936 24.8346Z" fill="#263238"/>
<path d="M49.8865 180.015C63.7287 204.9 92.9139 215.009 115.077 202.683C137.24 190.358 144.006 160.185 130.163 135.331C116.321 110.477 87.1438 100.337 64.9729 112.663C42.8021 124.988 36.0521 155.161 49.8865 180.015ZM118.156 142.019C127.854 159.438 123.118 180.567 107.58 189.207C92.043 197.846 71.5985 190.762 61.9012 173.327C52.2039 155.892 56.9398 134.779 72.4695 126.131C87.9992 117.484 108.459 124.6 118.156 142.019Z" fill="#029491"/>
<path d="M147.577 109.94L157.818 128.34C159.18 130.787 162.268 131.667 164.714 130.305L165.543 129.843C167.99 128.482 168.87 125.394 167.508 122.947L157.266 104.547C155.904 102.1 152.817 101.22 150.37 102.582L149.541 103.044C147.094 104.406 146.215 107.493 147.577 109.94Z" fill="#029491"/>
<path d="M167.246 98.9838L177.487 117.384C178.849 119.831 181.937 120.711 184.383 119.349L185.212 118.887C187.659 117.526 188.539 114.438 187.177 111.991L176.935 93.5907C175.573 91.1439 172.486 90.2644 170.039 91.6263L169.21 92.0877C166.763 93.4496 165.884 96.5371 167.246 98.9838Z" fill="#029491"/>
<path d="M157.047 104.264C157.148 104.21 159.52 108.386 162.358 113.596C165.197 118.806 167.413 123.052 167.312 123.106C167.211 123.161 164.839 118.993 162 113.775C159.162 108.557 156.946 104.264 157.047 104.264Z" fill="#263238"/>
<path d="M148.018 110.68C148.119 110.625 150.436 114.614 153.205 119.576C155.973 124.537 158.127 128.62 158.034 128.674C157.941 128.729 155.616 124.739 152.878 119.817C150.141 114.894 147.925 110.734 148.018 110.68Z" fill="#263238"/>
<path d="M176.838 93.4312C176.939 93.3768 179.357 97.5294 182.242 102.709C185.128 107.888 187.383 112.141 187.282 112.196C187.181 112.25 184.77 108.09 181.885 102.911C179 97.7316 176.744 93.4856 176.838 93.4312Z" fill="#263238"/>
<path d="M167.343 99.1626C167.436 99.1082 169.808 103.238 172.623 108.386C175.438 113.534 177.654 117.717 177.553 117.803C177.452 117.888 175.096 113.728 172.273 108.58C169.45 103.432 167.242 99.2171 167.343 99.1626Z" fill="#263238"/>
<path d="M223.746 71.1127C224.651 71.2193 225.564 70.9851 226.306 70.4557C227.049 69.9263 227.567 69.1396 227.762 68.2487C227.956 67.3579 227.811 66.4267 227.356 65.6365C226.902 64.8462 226.169 64.2536 225.301 63.9739C225.862 63.3995 226.228 62.6633 226.348 61.8694C226.467 61.0755 226.333 60.2642 225.966 59.5504C225.599 58.8365 225.016 58.2563 224.301 57.8917C223.586 57.5272 222.774 57.397 221.981 57.5194C221.948 56.7298 221.712 55.9621 221.294 55.2909C220.877 54.6197 220.294 54.0678 219.6 53.689C218.907 53.3101 218.127 53.1171 217.337 53.1288C216.546 53.1405 215.773 53.3564 215.091 53.7555C214.201 53.0284 213.094 52.6196 211.946 52.5943C210.797 52.5689 209.673 52.9284 208.753 53.6155C207.979 53.4679 207.179 53.5734 206.47 53.9165C205.761 54.2596 205.182 54.822 204.818 55.5203C204.454 56.2186 204.325 57.0156 204.45 57.7931C204.574 58.5706 204.946 59.2872 205.51 59.8368" fill="#263238"/>
<path d="M207.967 57.2395H208.745C212.666 57.2428 216.442 58.7226 219.321 61.3842C222.2 64.0458 223.971 67.6941 224.282 71.6027C224.865 79.1382 225.41 87.4668 225.348 91.5106C225.2 99.9092 216.848 101.153 216.848 101.153L217.524 111.216L197.204 110.555L195.517 74.0834C194.801 65.3815 199.257 57.7216 207.967 57.2395Z" fill="#FFBF9D"/>
<path d="M216.918 101.153C213.031 101.143 209.228 100.017 205.961 97.9106C205.961 97.9106 208.652 104.248 217.004 103.518L216.918 101.153Z" fill="#FF9A6C"/>
<path d="M219.686 79.4957C219.688 79.8073 219.568 80.1073 219.352 80.3312C219.135 80.5552 218.839 80.6852 218.528 80.6933C218.376 80.7039 218.223 80.6842 218.079 80.6354C217.935 80.5867 217.802 80.5098 217.688 80.4093C217.573 80.3088 217.48 80.1866 217.413 80.0498C217.347 79.913 217.308 79.7643 217.299 79.6124C217.299 79.3006 217.419 79.0009 217.635 78.7762C217.851 78.5514 218.146 78.4191 218.458 78.407C218.61 78.3965 218.763 78.4164 218.908 78.4657C219.052 78.5149 219.186 78.5925 219.3 78.6938C219.414 78.7952 219.508 78.9183 219.574 79.0559C219.64 79.1936 219.678 79.3431 219.686 79.4957Z" fill="#263238"/>
<path d="M222.47 75.7164C222.323 75.8719 221.413 75.2031 220.138 75.2031C218.862 75.2031 217.906 75.8408 217.766 75.6853C217.626 75.5297 217.851 75.3353 218.263 75.032C218.821 74.6487 219.484 74.4477 220.161 74.4566C220.829 74.4538 221.481 74.6665 222.019 75.0632C222.408 75.3664 222.54 75.6542 222.47 75.7164Z" fill="#263238"/>
<path d="M208.091 78.936C208.098 79.2523 207.979 79.5582 207.76 79.787C207.541 80.0158 207.241 80.1487 206.925 80.1569C206.773 80.1674 206.621 80.1478 206.477 80.099C206.332 80.0503 206.199 79.9734 206.085 79.8729C205.971 79.7723 205.878 79.6501 205.811 79.5133C205.744 79.3766 205.705 79.2279 205.696 79.076C205.694 78.7636 205.814 78.4628 206.03 78.2376C206.247 78.0124 206.543 77.8807 206.855 77.8706C207.006 77.8589 207.158 77.8773 207.302 77.9246C207.446 77.9719 207.58 78.0472 207.695 78.1462C207.81 78.2452 207.904 78.366 207.972 78.5015C208.04 78.637 208.081 78.7847 208.091 78.936Z" fill="#263238"/>
<path d="M209.826 75.9185C209.678 76.0741 208.768 75.4053 207.493 75.4053C206.218 75.4053 205.261 76.043 205.121 75.8874C204.981 75.7319 205.207 75.5375 205.619 75.2342C206.177 74.8508 206.84 74.6498 207.516 74.6587C208.185 74.6559 208.837 74.8686 209.375 75.2653C209.764 75.5686 209.896 75.8485 209.826 75.9185Z" fill="#263238"/>
<path d="M214.46 85.4759C215.139 85.2626 215.842 85.1371 216.552 85.1026C216.879 85.1026 217.19 85.0093 217.252 84.7838C217.28 84.4452 217.204 84.1063 217.034 83.8117L216.07 81.3077C214.733 77.7382 213.737 74.8065 213.908 74.7598C214.079 74.7132 215.254 77.5516 216.591 81.1133C216.91 81.992 217.221 82.8319 217.517 83.6328C217.718 84.0314 217.776 84.4875 217.68 84.9237C217.631 85.0389 217.557 85.1415 217.462 85.2237C217.368 85.3059 217.256 85.3655 217.136 85.3981C216.956 85.4513 216.77 85.4775 216.583 85.4759C215.879 85.564 215.165 85.564 214.46 85.4759Z" fill="#263238"/>
<path d="M210.953 70.9727C210.782 71.2993 209.686 70.9727 208.325 70.8949C206.964 70.8171 205.829 71.0738 205.704 70.7316C205.65 70.5683 205.891 70.2805 206.381 70.0161C207.013 69.7039 207.714 69.5593 208.418 69.5962C209.116 69.621 209.795 69.8302 210.386 70.2028C210.829 70.5061 211.031 70.8249 210.953 70.9727Z" fill="#263238"/>
<path d="M222.548 70.4207C222.276 70.7084 221.211 70.4207 219.936 70.4207C218.66 70.4207 217.603 70.6151 217.33 70.3041C217.222 70.1563 217.393 69.8608 217.867 69.5886C218.52 69.2461 219.253 69.0824 219.99 69.1142C220.723 69.1241 221.44 69.3309 222.066 69.713C222.517 69.9774 222.665 70.2729 222.548 70.4207Z" fill="#263238"/>
<path d="M223.489 67.7922C223.489 67.7922 221.296 62.543 218.769 61.3143C215.712 59.8212 214.39 63.1729 211.474 62.3486C208.558 61.5243 205.642 60.1012 202.656 62.3486C199.39 64.806 200.914 66.5402 200.696 70.2573C199.841 85.3127 197.072 89.5586 196.318 82.4664C196.232 81.6888 194.078 81.0667 193.767 77.8005C193.363 73.5468 193.215 68.3754 194.179 65.3581C194.957 62.8152 196.442 61.0577 199.047 59.1369C203.169 56.0885 208.815 56.0263 212.649 56.4385C216.482 56.8506 223.854 61.2288 223.489 67.7922Z" fill="#263238"/>
<path d="M196.847 82.2332C196.838 81.9259 196.768 81.6237 196.639 81.3446C196.51 81.0656 196.326 80.8156 196.097 80.6099C195.869 80.4041 195.601 80.2468 195.311 80.1476C195.02 80.0483 194.712 80.0091 194.405 80.0324C192.85 80.1802 191.1 81.0589 191.194 84.2862C191.357 90.0097 197.073 88.6643 197.08 88.4932C197.088 88.3222 196.94 84.6283 196.847 82.2332Z" fill="#FFBF9D"/>
<path d="M195.766 86.378C195.766 86.378 195.673 86.4557 195.502 86.5335C195.269 86.6401 195.005 86.654 194.763 86.5724C194.385 86.349 194.074 86.0285 193.862 85.6442C193.65 85.2599 193.545 84.8259 193.557 84.3872C193.528 83.8988 193.607 83.4099 193.791 82.9563C193.84 82.777 193.933 82.6125 194.06 82.4769C194.187 82.3414 194.346 82.239 194.522 82.1787C194.636 82.144 194.758 82.1507 194.868 82.1976C194.978 82.2446 195.067 82.3288 195.121 82.4353C195.198 82.5908 195.167 82.7075 195.198 82.7152C195.229 82.723 195.315 82.6141 195.261 82.3808C195.23 82.2389 195.146 82.1139 195.027 82.0309C194.949 81.9732 194.859 81.9317 194.765 81.909C194.67 81.8863 194.571 81.8828 194.475 81.8987C194.241 81.9514 194.024 82.0635 193.846 82.2242C193.667 82.385 193.533 82.5888 193.456 82.8163C193.225 83.3173 193.121 83.8675 193.153 84.4183C193.223 85.5692 193.845 86.6346 194.708 86.8523C194.862 86.8929 195.024 86.8979 195.18 86.8669C195.336 86.8359 195.484 86.7698 195.61 86.6735C195.766 86.518 195.789 86.378 195.766 86.378Z" fill="#FF9A6C"/>
<path d="M196.995 71.1438C197.695 71.7145 198.526 72.102 199.413 72.2714C199.859 72.3412 200.314 72.2474 200.696 72.0072C201.078 71.7671 201.359 71.3968 201.489 70.965C201.559 70.5684 201.489 70.1018 201.723 69.7985C201.956 69.4952 202.617 69.5496 203.091 69.6041C204.755 69.7829 206.707 67.9477 207.135 66.3302C207.351 66.6404 207.677 66.8565 208.047 66.9345C208.417 67.0125 208.803 66.9466 209.126 66.7501C209.655 66.4269 210.123 66.0137 210.51 65.5292C210.735 65.2207 211.032 64.9712 211.375 64.8019C211.717 64.6327 212.096 64.5487 212.478 64.5571C212.88 64.6962 213.298 64.7876 213.722 64.8293C214.499 64.7671 214.842 63.8883 214.958 63.1418C215.075 62.3952 215.168 61.5321 215.806 61.1277C216.46 60.8712 217.184 60.852 217.851 61.0732C218.543 61.1821 219.406 61.0188 219.616 60.3422C219.645 60.1614 219.637 59.9768 219.593 59.7991C219.549 59.6215 219.469 59.4545 219.36 59.308C218.897 58.6143 218.214 58.0972 217.421 57.8403C216.627 57.5835 215.771 57.6019 214.989 57.8926C214.714 56.9356 214.16 56.0821 213.398 55.4409C212.636 54.7998 211.701 54.3999 210.711 54.2923C209.721 54.1847 208.721 54.3743 207.839 54.8368C206.957 55.2993 206.233 56.0139 205.759 56.8895C205.153 56.3348 204.422 55.9348 203.628 55.7236C202.835 55.5123 202.002 55.4962 201.201 55.6765C200.399 55.8567 199.653 56.2281 199.027 56.7589C198.4 57.2896 197.911 57.9641 197.601 58.7247C196.901 58.538 196.161 58.5613 195.475 58.7916C194.788 59.022 194.184 59.4493 193.738 60.0204C193.292 60.5915 193.024 61.2811 192.967 62.0034C192.91 62.7257 193.066 63.4488 193.417 64.0828C192.884 64.3459 192.427 64.7402 192.088 65.2285C191.75 65.7168 191.541 66.2832 191.481 66.8745C191.481 68.0565 192.609 69.2075 193.752 68.9275C193.515 69.3933 193.465 69.9322 193.613 70.4335C193.76 70.9348 194.094 71.3605 194.546 71.6232C194.998 71.886 195.533 71.9658 196.042 71.8462C196.551 71.7267 196.995 71.4169 197.282 70.9805" fill="#263238"/>
<path d="M215.409 59.5723C215.409 59.5723 215.409 59.5723 215.409 59.6811C215.409 59.79 215.409 59.8522 215.37 59.9844C215.29 60.3725 215.148 60.7453 214.95 61.0887C214.635 61.6268 214.201 62.0867 213.683 62.434C212.997 62.9015 212.179 63.1335 211.35 63.095L211.443 62.9706C211.611 63.4841 211.569 64.0432 211.327 64.5259C211.07 65.0376 210.74 65.5091 210.347 65.9257C210.156 66.1686 209.94 66.3902 209.701 66.5867C209.278 66.865 208.77 66.9841 208.267 66.9229C207.765 66.8617 207.3 66.624 206.956 66.2523L207.166 66.1901C207.086 66.7843 206.882 67.3551 206.567 67.8655C206.252 68.3758 205.834 68.8144 205.339 69.1529C204.795 69.5572 204.134 69.7729 203.457 69.7673C202.821 69.7326 202.196 69.5933 201.606 69.3551L201.761 69.2851C201.462 69.9776 200.994 70.5844 200.401 71.0504C200.13 71.2824 199.81 71.451 199.466 71.5439C199.121 71.6367 198.761 71.6514 198.41 71.587C197.808 71.4562 197.258 71.1524 196.827 70.713C196.396 70.2737 196.103 69.7179 195.984 69.114L196.116 69.1763C195.511 69.4897 194.817 69.5884 194.148 69.4562C193.65 69.3612 193.182 69.1508 192.78 68.8419C192.53 68.6457 192.314 68.4092 192.142 68.142C192.079 68.0492 192.032 67.9468 192.002 67.8387C192.219 68.1963 192.501 68.5101 192.834 68.7641C193.23 69.0507 193.689 69.2399 194.172 69.3162C194.807 69.4365 195.464 69.332 196.03 69.0207L196.139 68.9585V69.0829C196.257 69.645 196.536 70.1605 196.942 70.5665C197.348 70.9725 197.863 71.2515 198.425 71.3692C198.746 71.4252 199.075 71.4089 199.388 71.3214C199.702 71.234 199.992 71.0776 200.237 70.8638C200.794 70.4208 201.233 69.8462 201.513 69.1918L201.559 69.0907H201.668C202.231 69.3171 202.828 69.4485 203.433 69.4795C204.06 69.4846 204.672 69.2853 205.175 68.9119C205.641 68.592 206.035 68.1785 206.333 67.6979C206.63 67.2172 206.824 66.6798 206.902 66.1201V65.8479L207.081 66.0579C207.283 66.2813 207.537 66.4519 207.82 66.5549C208.103 66.6579 208.407 66.6902 208.706 66.6489C208.984 66.6118 209.251 66.5106 209.484 66.3534C209.709 66.1724 209.912 65.9663 210.09 65.739C210.475 65.3423 210.799 64.8917 211.054 64.4015C211.169 64.1832 211.239 63.9442 211.26 63.6985C211.282 63.4529 211.254 63.2054 211.179 62.9706L211.132 62.8306H211.28C212.074 62.8799 212.863 62.6698 213.527 62.2318C214.038 61.9033 214.468 61.4649 214.787 60.9487C215.074 60.5303 215.285 60.0642 215.409 59.5723Z" fill="#455A64"/>
<path d="M214.445 89.7452C214.398 89.5352 213.006 89.8774 211.715 88.9287C210.425 87.9799 210.215 86.4557 210.02 86.4946C209.826 86.5335 209.826 86.899 209.966 87.5289C210.157 88.3508 210.634 89.0781 211.311 89.5819C211.958 90.0638 212.766 90.2757 213.566 90.1729C214.165 90.0796 214.476 89.8385 214.445 89.7452Z" fill="#263238"/>
<path d="M257.574 307.324L263.095 326.136C263.095 326.136 284.091 326.835 285.437 330.218L249.307 342.225L239.493 313.258L257.574 307.324Z" fill="#455A64"/>
<path d="M251.415 328.29C251.103 328.511 250.884 328.84 250.799 329.213C250.715 329.586 250.77 329.977 250.956 330.312C251.165 330.631 251.489 330.859 251.861 330.947C252.232 331.035 252.624 330.978 252.955 330.786C253.285 330.55 253.517 330.201 253.604 329.804C253.692 329.408 253.629 328.993 253.429 328.64C253.176 328.328 252.811 328.126 252.413 328.077C252.014 328.028 251.612 328.135 251.29 328.375" fill="#E0E0E0"/>
<path d="M283.399 328.857C283.399 328.857 285.242 329.021 285.437 330.218L249.307 342.225L248.436 339.262L283.368 328.842" fill="#263238"/>
<path d="M263.616 325.755C263.67 325.933 262.838 326.307 262.138 327.162C261.438 328.018 261.244 328.912 261.057 328.896C260.871 328.881 260.801 327.776 261.64 326.758C262.48 325.739 263.6 325.584 263.616 325.755Z" fill="white"/>
<path d="M267.924 326.058C268.025 326.221 267.364 326.773 267.006 327.714C266.649 328.655 266.75 329.511 266.571 329.557C266.392 329.604 265.949 328.647 266.408 327.481C266.866 326.314 267.87 325.894 267.924 326.058Z" fill="white"/>
<path d="M271.587 329.876C271.439 329.969 270.903 329.169 271.035 328.056C271.167 326.944 271.859 326.276 271.984 326.4C272.108 326.524 271.766 327.178 271.673 328.126C271.579 329.075 271.758 329.783 271.587 329.876Z" fill="white"/>
<path d="M261.882 321.61C261.882 321.796 260.972 321.82 260 322.216C259.028 322.613 258.351 323.188 258.211 323.072C258.071 322.955 258.608 322.076 259.767 321.617C260.925 321.159 261.928 321.439 261.882 321.61Z" fill="white"/>
<path d="M173.323 307.487L165.461 325.451C165.461 325.451 181.084 339.449 179.956 342.933L144.573 328.935L155.67 300.442L173.323 307.487Z" fill="#455A64"/>
<path d="M155.126 319.596C154.745 319.566 154.367 319.677 154.063 319.908C153.759 320.138 153.55 320.473 153.477 320.848C153.434 321.227 153.536 321.609 153.765 321.915C153.993 322.222 154.33 322.429 154.706 322.496C155.11 322.526 155.511 322.406 155.832 322.16C156.153 321.913 156.372 321.557 156.448 321.159C156.448 320.381 155.74 319.495 154.978 319.603" fill="#E0E0E0"/>
<path d="M179.264 340.584C179.264 340.584 180.571 341.899 179.956 342.917L144.573 328.92L145.81 326.097L179.249 340.561" fill="#263238"/>
<path d="M166.098 325.498C166.028 325.669 165.134 325.405 164.061 325.622C162.988 325.84 162.249 326.4 162.117 326.26C161.985 326.12 162.638 325.234 163.937 324.993C165.235 324.751 166.207 325.35 166.098 325.498Z" fill="white"/>
<path d="M169.209 328.5C169.209 328.678 168.322 328.678 167.444 329.176C166.565 329.674 166.098 330.381 165.888 330.311C165.678 330.241 165.997 329.215 167.094 328.616C168.19 328.017 169.271 328.336 169.209 328.5Z" fill="white"/>
<path d="M169.567 333.772C169.395 333.772 169.497 332.792 170.344 332.022C171.192 331.253 172.117 331.19 172.133 331.361C172.148 331.532 171.448 331.844 170.787 332.489C170.126 333.134 169.745 333.827 169.567 333.772Z" fill="white"/>
<path d="M167.444 321.229C167.312 321.353 166.612 320.809 165.609 320.451C164.605 320.093 163.727 320.14 163.696 319.961C163.664 319.782 164.637 319.448 165.811 319.837C166.985 320.225 167.584 321.104 167.444 321.229Z" fill="white"/>
<path d="M186.566 208.803L174.171 259.086C174.171 259.086 151.813 296.725 148.026 315.559L168.478 323.6C168.478 323.6 183.355 287.323 187.717 280.666C189.68 277.683 191.936 274.903 194.452 272.369C196.087 270.746 197.26 268.717 197.85 266.49L207.236 230.617L186.566 208.803Z" fill="#263238"/>
<path d="M181.286 200.763C181.286 200.763 183.013 214.232 195.976 220.204L223.287 264.686C223.287 264.686 225.426 279.15 229.508 291.336C233.591 303.521 241.842 327.006 241.842 327.006L264.308 318.608L249.992 269.662L247.659 252.686L225.371 195.918L206.225 184.44L181.286 200.763Z" fill="#263238"/>
<path d="M181.286 200.763L181.698 200.483L182.935 199.659L187.787 196.455L206.187 184.362L206.249 184.323L206.311 184.362L225.472 195.817V195.864L247.806 252.578V252.617C248.545 257.982 249.362 263.729 250.139 269.593C254.028 282.813 258.149 296.958 262.411 311.531C263.1 313.88 263.785 316.213 264.464 318.53L264.518 318.709L264.339 318.771L241.873 327.17L241.679 327.24L241.616 327.046C237.728 315.762 233.964 304.898 230.41 294.594C229.516 292.02 228.637 289.469 227.906 286.919C227.175 284.368 226.514 281.833 225.916 279.329C224.734 274.321 223.785 269.429 223.038 264.686V264.748L195.883 220.251L195.929 220.29C192.645 218.754 189.728 216.532 187.375 213.773C185.651 211.748 184.236 209.478 183.176 207.038C182.52 205.532 182 203.971 181.621 202.373C181.488 201.844 181.411 201.432 181.364 201.152C181.317 200.872 181.309 200.732 181.309 200.732C181.309 200.732 181.309 200.872 181.395 201.144C181.481 201.416 181.527 201.828 181.675 202.365C182.076 203.942 182.612 205.483 183.277 206.968C184.35 209.383 185.77 211.629 187.492 213.633C189.853 216.363 192.769 218.558 196.046 220.072L223.412 264.522V264.561C224.189 269.289 225.122 274.173 226.304 279.173C226.903 281.67 227.556 284.197 228.295 286.74C229.034 289.283 229.905 291.818 230.799 294.392C234.369 304.696 238.125 315.56 242.028 326.836L241.772 326.719L264.238 318.32L264.114 318.561C263.44 316.244 262.755 313.911 262.061 311.563L249.805 269.616C249.027 263.753 248.203 258.006 247.472 252.64V252.687L225.223 195.918L225.286 195.988L206.155 184.487H206.272L187.873 196.525L182.974 199.682L181.714 200.498L181.286 200.763Z" fill="#455A64"/>
<path d="M193.316 104.668C193.316 104.668 186.768 109.708 183.588 115.338C179.777 122.08 179.365 132.073 179.248 147.595C179.132 161.95 181.278 165.939 180.454 171.352C178.828 181.92 177.623 217.389 177.623 217.389C177.623 217.389 198.62 209.325 202.695 205.724L206.793 202.162L233.07 210.849L227.766 178.561L224.127 138.317L219.461 116.971L218.683 108.595L196.116 99.5281L193.316 104.668Z" fill="#455A64"/>
<path d="M217.835 108.152C218.108 108.207 217.19 110.05 215.572 112.756L215.502 112.865L215.378 112.818C213.1 111.932 210.082 110.82 206.785 109.614C203.068 108.261 199.708 107.001 197.305 106.021C196.1 105.531 195.136 105.119 194.475 104.816C194.124 104.68 193.786 104.514 193.464 104.318C193.833 104.401 194.192 104.521 194.537 104.676L197.407 105.757L206.925 109.233C210.222 110.438 213.232 111.566 215.479 112.53L215.293 112.593C216.988 109.941 217.991 108.191 217.835 108.152Z" fill="#263238"/>
<path d="M244.991 91.3861C244.991 91.3861 243.327 88.7965 241.756 86.4091C240.185 84.0217 237.805 82.8474 237.424 81.6032C237.043 80.359 234.951 74.8143 234.617 73.4379C234.327 72.1048 234.191 70.7427 234.213 69.3785C234.213 69.3785 235.931 68.6475 236.756 71.1049C237.253 72.5824 238.84 77.5983 239.182 77.8471C239.524 78.096 239.96 77.7305 239.96 77.7305C239.253 75.8524 238.643 73.9395 238.132 71.9992C238.054 71.0894 238.373 65.0548 238.373 65.0548C238.8 64.9688 239.243 65.0384 239.622 65.251C240.002 65.4636 240.292 65.805 240.442 66.2135C241.258 67.7688 241.289 71.657 241.289 71.657L242.526 75.9963L242.09 71.7037L242.712 63.8105C243.317 63.8967 243.88 64.1668 244.325 64.5843C244.77 65.0017 245.076 65.5461 245.201 66.1435C245.722 68.2743 245.03 71.2449 245.38 71.8748C245.73 72.5047 246.111 76.3152 246.111 76.3152C246.111 76.3152 246.538 67.0611 247.526 66.7967C248.514 66.5323 249.322 67.5122 249.183 69.3785C249.043 71.2449 249.004 75.1954 249.517 76.9373C250.03 78.6792 255.295 85.4915 254.867 88.4776C254.605 90.2819 254.441 92.0991 254.377 93.9212H245.356L244.991 91.3861Z" fill="#FFBF9D"/>
<path d="M213.349 114.692C213.854 114.887 235.403 120.221 235.403 120.221C235.403 120.221 240.216 112.445 240.924 110.19C241.632 107.935 245.419 92.9103 245.419 92.9103L254.525 92.0549C254.525 92.0549 252.192 130.852 248.895 132.944C245.598 135.036 240.341 136.093 239.999 135.977C239.656 135.86 216.708 137.454 204.616 127.928C192.523 118.402 213.349 114.692 213.349 114.692Z" fill="#FFBF9D"/>
<g opacity="0.3">
<path d="M197.905 135.23C200.217 137.848 203.303 139.662 206.715 140.409C212.431 141.669 224.601 143.901 224.601 143.901L224.01 137.929L197.57 135.098" fill="black"/>
</g>
<path d="M188.308 127.018C190.268 131.155 194.623 135.572 204.196 136.575C223.147 138.535 237.495 139.577 243.692 138.644C249.89 137.711 252.355 124.592 253.024 124.187C254.953 122.974 254.828 118.806 253.164 117.562C248.436 114.024 238.957 111.341 238.319 111.628C234.547 113.502 235.776 117.888 235.776 117.888L211.747 112.585C208.979 111.434 206.091 110.594 203.138 110.081" fill="#455A64"/>
<path d="M203.138 110.081C203.138 110.081 203.34 110.081 203.729 110.159C204.118 110.236 204.701 110.33 205.448 110.493C207.615 110.985 209.738 111.656 211.793 112.499L235.807 117.725L235.605 117.943C235.249 116.565 235.359 115.108 235.916 113.798C236.223 113.127 236.687 112.541 237.269 112.087C237.564 111.857 237.879 111.654 238.21 111.481C238.324 111.447 238.442 111.428 238.56 111.426H238.848C239.042 111.426 239.213 111.488 239.4 111.519C242.355 112.218 245.237 113.195 248.009 114.436C249.469 115.072 250.881 115.815 252.231 116.66C252.566 116.877 252.9 117.119 253.234 117.352C253.58 117.615 253.862 117.952 254.059 118.339C254.438 119.103 254.635 119.944 254.634 120.797C254.654 121.66 254.462 122.514 254.074 123.285C253.859 123.683 253.556 124.026 253.188 124.288C253.094 124.335 253.032 124.537 252.954 124.724L252.752 125.307C252.239 126.862 251.726 128.527 251.104 130.129C250.289 132.426 249.096 134.571 247.573 136.474C247.021 137.198 246.317 137.791 245.511 138.213C244.705 138.635 243.816 138.875 242.907 138.916C242.324 139.002 241.741 139.017 241.165 139.064C238.832 139.204 236.593 139.173 234.376 139.11C232.16 139.048 229.99 138.932 227.883 138.799C219.43 138.255 211.848 137.485 205.487 136.824C203.967 136.691 202.456 136.473 200.961 136.171C199.634 135.887 198.333 135.492 197.072 134.989C195.03 134.196 193.158 133.018 191.559 131.521C190.56 130.565 189.702 129.473 189.008 128.278C188.76 127.868 188.544 127.439 188.363 126.995C188.363 126.995 188.581 127.438 189.078 128.239C189.797 129.404 190.668 130.469 191.668 131.404C193.266 132.869 195.129 134.015 197.158 134.779C198.421 135.266 199.721 135.648 201.046 135.922C202.538 136.208 204.043 136.413 205.557 136.536C211.918 137.166 219.5 137.905 227.937 138.434C230.053 138.558 232.215 138.667 234.423 138.722C236.632 138.776 238.895 138.807 241.181 138.675C241.749 138.621 242.332 138.605 242.899 138.519C243.466 138.49 244.026 138.382 244.564 138.201C245.638 137.786 246.587 137.1 247.317 136.21C248.806 134.343 249.973 132.24 250.769 129.989C251.391 128.433 251.897 126.793 252.41 125.191L252.628 124.584C252.628 124.491 252.706 124.39 252.752 124.281C252.781 124.221 252.814 124.163 252.853 124.11C252.883 124.072 252.917 124.038 252.954 124.009L253.009 123.962C253.332 123.738 253.598 123.443 253.787 123.099C254.15 122.376 254.326 121.574 254.3 120.766C254.302 119.979 254.124 119.202 253.779 118.495C253.609 118.161 253.367 117.869 253.071 117.64C252.737 117.414 252.418 117.173 252.084 116.963C250.752 116.125 249.359 115.389 247.915 114.762C245.175 113.527 242.324 112.553 239.4 111.854C239.221 111.854 239.042 111.776 238.871 111.761H238.615H238.444C238.137 111.924 237.846 112.114 237.573 112.328C237.031 112.737 236.596 113.27 236.305 113.883C235.79 115.114 235.683 116.477 236.002 117.772L236.072 118.044L235.8 117.982L211.825 112.616C209.787 111.759 207.687 111.062 205.541 110.532C204.763 110.353 204.227 110.229 203.838 110.151C203.449 110.073 203.138 110.081 203.138 110.081Z" fill="#263238"/>
<path d="M243.692 125.393C243.14 125.256 242.614 125.027 242.137 124.716C240.945 124.051 239.846 123.23 238.871 122.274C237.891 121.323 237.034 120.251 236.32 119.086C235.996 118.609 235.747 118.084 235.582 117.531C236.647 119.102 237.841 120.582 239.151 121.956C240.559 123.235 242.079 124.385 243.692 125.393Z" fill="#263238"/>
<path d="M74.5064 189.44C74.5064 189.44 79.3279 189.697 82.2829 191.571C85.238 193.445 90.0594 196.338 92.0425 199.946C92.9523 201.602 90.3627 201.952 89.0874 200.988C87.812 200.024 85.8446 198.22 84.8725 197.994L83.9004 197.776C84.7867 199.783 85.7757 201.743 86.8633 203.648C87.8665 205.203 88.7374 207.785 85.7279 207.909C85.7279 207.909 83.6905 210.553 81.6375 208.593C81.6375 208.593 80.0355 210.989 77.4537 207.668C77.4537 207.668 75.9529 209.566 75.323 208.842C74.6931 208.119 72.6401 206.96 72.0413 204.581C71.1478 201.809 70.1095 199.086 68.9307 196.423L74.5064 189.44Z" fill="#FFBF9D"/>
<path d="M33.4781 126.038C31.0067 126.834 28.8736 128.436 27.4202 130.587C25.5694 133.434 25.0017 138.364 25.5305 142.034C26.6503 149.772 30.1964 162.829 32.195 171.212C32.8793 174.105 34.2869 179.284 38.4162 182.029L67.8814 199.697L75.759 188.032L48.8989 166.142L43.5876 136.14L33.4781 126.038Z" fill="#455A64"/>
<path d="M28.3843 155.527C28.4247 155.625 28.4559 155.726 28.4776 155.83L28.7264 156.74C28.9364 157.564 29.2319 158.746 29.6207 160.263C30.3984 163.373 31.5027 167.79 32.8791 173.288C33.6782 176.283 35.3709 178.963 37.7316 180.971C39.0802 182.051 40.5219 183.009 42.0398 183.833L46.7757 186.695L67.9978 199.511L67.7256 199.573L70.5641 195.366L75.6033 187.877L75.6421 188.149L49.0231 166.227H48.9765V166.173C47.219 158.777 45.9436 152.719 45.1349 148.504C44.7383 146.397 44.4583 144.756 44.2795 143.636C44.2017 143.092 44.1395 142.664 44.0928 142.361C44.0462 142.058 44.0384 141.926 44.0384 141.926C44.0806 142.066 44.1144 142.209 44.1395 142.353C44.1939 142.657 44.2717 143.076 44.365 143.621C44.575 144.733 44.8783 146.374 45.3137 148.473C46.1614 152.673 47.4834 158.715 49.2798 166.103L49.2253 166.017L75.891 187.838L76.0309 187.955L75.9299 188.102L70.8907 195.591L68.0523 199.798L67.9512 199.954L67.7801 199.861L46.5891 187.006L41.861 184.136C40.333 183.303 38.881 182.338 37.5217 181.251C35.1201 179.194 33.4074 176.45 32.6147 173.389C31.2849 167.876 30.2195 163.42 29.5041 160.333C29.1541 158.777 28.8742 157.619 28.6798 156.794L28.4543 155.838C28.4237 155.736 28.4003 155.632 28.3843 155.527Z" fill="#263238"/>
<path d="M28.8667 130.183C29.0496 130.063 29.2523 129.976 29.4655 129.926C30.03 129.752 30.6072 129.622 31.1919 129.538C33.1424 129.237 35.1383 129.507 36.9387 130.315C38.6789 131.223 40.1569 132.561 41.2314 134.204C41.5571 134.7 41.8184 135.236 42.009 135.798C42.0925 135.998 42.1399 136.211 42.149 136.428C41.8129 135.714 41.4257 135.025 40.9903 134.367C39.8833 132.834 38.435 131.58 36.7599 130.704C35.0224 129.934 33.1118 129.639 31.223 129.849C29.7688 129.965 28.89 130.253 28.8667 130.183Z" fill="#263238"/>
</svg>
