<svg width="94" height="105" viewBox="0 0 94 105" fill="none" xmlns="http://www.w3.org/2000/svg">
<path d="M72.6993 73.0416C84.396 55.7392 88.3567 37.9803 81.5459 33.376C74.735 28.7718 59.7316 39.0657 48.0349 56.3682C36.3382 73.6707 32.3775 91.4296 39.1884 96.0338C45.9993 100.638 61.0026 90.3441 72.6993 73.0416Z" fill="#303646"/>
<path d="M70.6701 71.671C82.3668 54.3685 86.7271 36.8797 80.4091 32.6086C74.0911 28.3375 59.4872 38.9016 47.7906 56.2041C36.0939 73.5065 31.7336 90.9953 38.0516 95.2664C44.3696 99.5375 58.9734 88.9734 70.6701 71.671Z" fill="white"/>
<path d="M68.7627 70.3822C79.1007 55.0896 82.9546 39.6324 77.3706 35.8576C71.7866 32.0827 58.8793 41.4197 48.5413 56.7123C38.2033 72.0049 34.3495 87.4621 39.9334 91.2369C45.5174 95.0118 58.4247 85.6748 68.7627 70.3822Z" fill="#CD2B31"/>
<path d="M66.3906 68.7739C74.8063 56.3248 77.9434 43.7417 73.3976 40.6686C68.8518 37.5956 58.3444 45.1964 49.9287 57.6454C41.513 70.0944 38.3758 82.6776 42.9216 85.7506C47.4675 88.8236 57.9749 81.2229 66.3906 68.7739Z" fill="white"/>
<path d="M65.0695 67.012C71.9095 56.9043 74.4621 46.6855 70.771 44.1877C67.0799 41.6899 58.5428 47.8589 51.7028 57.9666C44.8628 68.0743 42.3101 78.2931 46.0012 80.7909C49.6923 83.2887 58.2295 77.1197 65.0695 67.012Z" fill="#CD2B31"/>
<path d="M61.6155 65.5494C66.1867 58.7875 67.8904 51.9525 65.4209 50.283C62.9513 48.6136 57.2437 52.7419 52.6726 59.5038C48.1014 66.2658 46.3977 73.1008 48.8672 74.7702C51.3368 76.4396 57.0444 72.3114 61.6155 65.5494Z" fill="white"/>
<path d="M60.2364 63.7423C62.5436 60.3328 63.4043 56.8856 62.1588 56.0427C60.9133 55.1999 58.0332 57.2805 55.7259 60.69C53.4187 64.0995 52.558 67.5466 53.8036 68.3895C55.0491 69.2324 57.9292 67.1517 60.2364 63.7423Z" fill="#CD2B31"/>
<path d="M54.8594 56.2998C53.7124 57.0965 50.3634 59.1737 50.271 59.6701C50.1787 60.1666 53.6814 60.1905 54.0912 59.4156C54.501 58.6408 54.8594 56.2998 54.8594 56.2998Z" fill="#BAB3B4"/>
<path d="M4.08423 11.0835C4.42423 11.0573 8.53075 10.8567 9.30938 11.297C9.82753 11.6282 10.2539 12.0847 10.549 12.6242C7.78662 13.0941 6.08262 13.382 5.17864 12.4373C4.70949 11.9439 4.34323 11.6034 4.14489 11.3892C3.94656 11.175 3.91996 11.0986 4.08423 11.0835Z" fill="white"/>
<path opacity="0.09" d="M4.08427 11.0835C4.42427 11.0573 8.53079 10.8567 9.30941 11.297C8.92686 11.7129 5.27036 12.403 4.14493 11.3892C3.96567 11.1903 3.92 11.0986 4.08427 11.0835Z" fill="#1F1F39"/>
<path d="M2.90574 9.77937C3.24193 9.74927 7.35231 9.55251 8.12712 9.98903C8.65482 10.332 9.08559 10.8048 9.37812 11.3621C6.61577 11.8319 4.90029 12.0931 3.99633 11.1331C3.531 10.6359 3.16478 10.2992 2.96645 10.085C2.76812 9.87086 2.74148 9.7906 2.90574 9.77937Z" fill="white"/>
<path opacity="0.09" d="M2.90573 9.77939C3.24191 9.7493 7.35229 9.55253 8.12711 9.98906C7.74455 10.4049 5.65809 11.0246 2.96644 10.0851C2.77954 9.88618 2.74147 9.79063 2.90573 9.77939Z" fill="#1F1F39"/>
<path d="M1.5863 8.25329C2.23005 8.4062 2.89437 8.45355 3.55331 8.39351L3.58002 8.39355C4.96675 8.28851 6.41836 8.24469 6.80768 8.46295C7.36816 8.8549 7.82174 9.38076 8.12719 9.99269C5.36483 10.4663 3.58084 10.5708 2.67689 9.60318C2.21156 9.10596 1.84535 8.76932 1.64701 8.55514L1.58598 8.48629C1.45249 8.33713 1.44113 8.26455 1.5863 8.25329Z" fill="white"/>
<path opacity="0.09" d="M1.5863 8.25329C2.23005 8.4062 2.89437 8.45355 3.55331 8.39351L3.58002 8.39355C4.99346 8.30765 6.46032 8.28295 6.84963 8.50121C6.46708 8.91704 3.79279 9.23038 1.68514 8.5972L1.58597 8.49011C1.45249 8.33714 1.44113 8.26455 1.5863 8.25329Z" fill="#1F1F39"/>
<path d="M0.270511 6.75429C0.610509 6.72802 4.71703 6.52743 5.49566 6.96396C6.04877 7.34912 6.49922 7.86383 6.80762 8.46313C4.04527 8.93297 2.26506 9.06802 1.36492 8.10801C0.895765 7.61461 0.529505 7.27414 0.331172 7.05996C0.132839 6.84578 0.106245 6.76552 0.270511 6.75429Z" fill="white"/>
<path opacity="0.23" d="M0.270547 6.75425C0.610544 6.72798 4.71707 6.52739 5.4957 6.96392C5.11315 7.37975 2.35213 6.87173 0.331207 7.05992C0.151952 6.86105 0.10628 6.76548 0.270547 6.75425Z" fill="#1F1F39"/>
<path d="M4.67242 5.70978C4.68966 5.97523 4.7777 6.23123 4.92733 6.45117C5.76578 7.82745 52.4174 59.8945 52.4973 60.1506C52.4972 60.1887 52.5622 60.2079 52.6462 60.2119C52.7635 60.2165 52.8809 60.2025 52.9939 60.1703C53.5594 60.0336 54.3431 59.5687 53.8781 58.8003C53.8366 58.7302 53.7894 58.6637 53.737 58.6014C53.737 58.6014 7.66723 5.62988 6.57924 5.16619C5.71647 4.79829 4.662 4.95345 4.67242 5.70978Z" fill="#543237"/>
<path d="M11.1635 4.75634C11.0942 5.08857 10.3934 9.1404 10.7323 9.96594C10.9974 10.5221 11.3988 11.0023 11.8992 11.3618C12.7051 8.68904 13.2116 7.02049 12.3726 6.01473C11.9379 5.49081 11.6481 5.08552 11.4574 4.86752C11.2667 4.64953 11.1942 4.59213 11.1635 4.75634Z" fill="white"/>
<path opacity="0.09" d="M11.1635 4.75625C11.0942 5.08848 10.3934 9.14031 10.7323 9.96585C11.1911 9.64562 12.3266 6.09097 11.4574 4.85597C11.282 4.64182 11.1942 4.59204 11.1635 4.75625Z" fill="#1F1F39"/>
<path d="M10.0119 3.42162C9.94267 3.75385 9.24183 7.80567 9.58065 8.63121C9.85647 9.1961 10.2728 9.6807 10.7896 10.0386C11.5954 7.36582 12.0638 5.68577 11.221 4.67236C10.7863 4.14845 10.4965 3.74315 10.3058 3.52516C10.1151 3.30717 10.0427 3.26123 10.0119 3.42162Z" fill="white"/>
<path opacity="0.09" d="M10.0119 3.42156C9.94267 3.75379 9.24183 7.8056 9.58065 8.63115C10.0395 8.31092 10.9093 6.30674 10.3058 3.51746C10.1304 3.31095 10.0427 3.26117 10.0119 3.42156Z" fill="#1F1F39"/>
<path d="M8.65791 1.92614C8.73296 2.58278 8.69978 3.24729 8.5597 3.89319C8.5597 3.89319 8.55967 3.91228 8.55965 3.92374C8.28657 5.28321 8.06305 6.71914 8.23437 7.13574C8.55445 7.73894 9.01976 8.25289 9.58829 8.63115C10.3941 5.95841 10.7174 4.1903 9.87467 3.17689C9.43994 2.64916 9.15024 2.24386 8.96337 2.02969L8.90233 1.96085C8.7574 1.80404 8.68867 1.78103 8.65791 1.92614Z" fill="white"/>
<path opacity="0.09" d="M8.6578 1.92608C8.73285 2.58273 8.69968 3.24723 8.55959 3.89314C8.55959 3.89314 8.55956 3.91223 8.55955 3.92369C8.3017 5.31373 8.09724 6.76498 8.26856 7.17775C8.72738 6.85752 9.3651 4.23039 8.99375 2.06788L8.90224 1.95316C8.75729 1.80399 8.68856 1.78097 8.6578 1.92608Z" fill="#1F1F39"/>
<path d="M7.33065 0.434682C7.26143 0.770728 6.56064 4.82255 6.90328 5.64427C7.21556 6.24237 7.67 6.75457 8.22668 7.13582C9.03253 4.46308 9.37872 2.69882 8.54359 1.68542C8.10886 1.16151 7.81915 0.756215 7.62846 0.538224C7.43777 0.320232 7.36525 0.274299 7.33065 0.434682Z" fill="white"/>
<path opacity="0.23" d="M7.33065 0.434527C7.26143 0.770572 6.56064 4.82239 6.90328 5.64412C7.3621 5.32389 7.19409 2.51611 7.62847 0.534245C7.45305 0.323914 7.36525 0.274143 7.33065 0.434527Z" fill="#1F1F39"/>
<path opacity="0.47" d="M4.67236 5.70981C4.68961 5.97526 4.77764 6.23126 4.92728 6.4512C5.76573 7.82748 52.4174 59.8945 52.4972 60.1506C52.5201 60.227 52.734 60.2349 52.9938 60.1704C47.6052 53.8221 9.06632 10.3684 4.67236 5.70981Z" fill="#1F1F39"/>
<path d="M50.0608 59.8455C49.7886 60.5251 56.6632 64.0335 57.3511 63.8167L57.3778 63.8168C57.9016 63.4928 55.2529 56.3385 54.8595 56.3112C54.4661 56.2839 53.6727 58.273 52.858 59.0663L52.8388 59.0663C52.028 59.8406 50.2486 59.3645 50.0608 59.8455Z" fill="white"/>
<path opacity="0.22" d="M50.0607 59.8455C49.7885 60.525 56.6631 64.0334 57.351 63.8167C55.7232 61.4843 53.9685 59.7516 52.8388 59.0701C52.0279 59.8405 50.2485 59.3644 50.0607 59.8455Z" fill="#1F1F39"/>
</svg>
