<svg width="96" height="31" viewBox="0 0 96 31" fill="none" xmlns="http://www.w3.org/2000/svg">
<rect width="96" height="31" rx="3" fill="white"/>
<rect x="0.5" y="0.5" width="95" height="30" rx="2.5" stroke="#5970FF" stroke-opacity="0.51"/>
<path d="M49.3742 15.8286C48.8869 15.8286 48.5359 15.9927 48.1797 16.1598V19.9442C48.5213 19.9785 48.7156 19.9785 49.0401 19.9785C50.2097 19.9785 50.3697 19.4276 50.3697 18.6596V16.8517C50.3697 16.2844 50.1866 15.8286 49.3742 15.8286ZM41.6085 15.6219C40.7971 15.6219 40.6126 16.0797 40.6126 16.6465V16.9646H42.6044V16.6465C42.6042 16.0795 42.419 15.6219 41.6085 15.6219ZM26.5652 19.5613C26.5652 20.0092 26.7708 20.2423 27.2253 20.2423C27.7129 20.2423 28.0011 20.0791 28.3571 19.9108V19.0138H27.2911C26.7866 19.014 26.5652 19.1099 26.5652 19.5613ZM56.9286 15.8286C56.116 15.8286 55.8344 16.2844 55.8344 16.8512V18.9223C55.8344 19.4913 56.116 19.9476 56.9286 19.9476C57.7388 19.9476 58.0227 19.4908 58.0227 18.9223V16.8512C58.0225 16.2844 57.7388 15.8286 56.9286 15.8286ZM22.5825 21.8826H20.1943V15.941H19V13.8931H20.1943V12.6639C20.1943 10.9934 20.8683 10 22.7823 10H24.3768V12.0479H23.3809C22.6353 12.0479 22.5858 12.3342 22.5858 12.8681L22.5825 13.8929H24.3884L24.177 15.9408H22.5825V21.8826ZM30.747 21.8979H28.7561L28.6706 21.3803C27.7612 21.8979 26.9497 21.982 26.4145 21.982C24.9541 21.982 24.1772 20.9796 24.1772 19.5934C24.1772 17.9583 25.0838 17.3742 26.7062 17.3742H28.3574V17.0207C28.3574 16.1855 28.2642 15.9408 27.0151 15.9408H24.9723L25.1722 13.8929H27.4047C30.146 13.8929 30.747 14.7835 30.747 17.0373V21.8979ZM37.517 16.0913C36.2783 15.8728 35.9223 15.8249 35.3266 15.8249C34.2557 15.8249 33.9319 16.0679 33.9319 17.002V18.7698C33.9319 19.7042 34.2557 19.9479 35.3266 19.9479C35.9223 19.9479 36.2783 19.8997 37.517 19.6804V21.6772C36.4315 21.9278 35.7248 21.9933 35.1277 21.9933C32.5625 21.9933 31.5437 20.6074 31.5437 18.6047V17.17C31.5437 15.1664 32.5625 13.7775 35.1277 13.7775C35.7248 13.7775 36.432 13.8439 37.517 14.0943V16.0913ZM44.9926 18.6047H40.6124V18.7698C40.6124 19.7042 40.9362 19.9479 42.0065 19.9479C42.9693 19.9479 43.5564 19.8997 44.793 19.6804V21.6772C43.6006 21.9278 42.9794 21.9933 41.8086 21.9933C39.2437 21.9933 38.2237 20.6074 38.2237 18.6047V16.9644C38.2237 15.2128 38.9809 13.7775 41.6088 13.7775C44.2371 13.7775 44.9928 15.1958 44.9928 16.9644L44.9926 18.6047ZM52.7581 18.6423C52.7581 20.5777 52.22 21.9894 48.9596 21.9894C47.7831 21.9894 47.0915 21.8826 45.7918 21.6769V10.6147L48.1797 10.2057V14.0748C48.6954 13.8776 49.3639 13.7777 49.9719 13.7777C52.3605 13.7777 52.7583 14.8784 52.7583 16.646V18.6423H52.7581ZM60.4136 18.6845C60.4136 20.354 59.7426 21.9736 56.9365 21.9736C54.1287 21.9736 53.4456 20.354 53.4456 18.6845V17.0727C53.4456 15.4027 54.1287 13.7829 56.9365 13.7829C59.7426 13.7829 60.4136 15.4027 60.4136 17.0727V18.6845ZM68.0625 18.6845C68.0625 20.354 67.3912 21.9736 64.586 21.9736C61.7782 21.9736 61.0945 20.354 61.0945 18.6845V17.0727C61.0945 15.4027 61.7782 13.7829 64.586 13.7829C67.3912 13.7829 68.0625 15.4027 68.0625 17.0727V18.6845ZM75.914 21.8826H73.3248L71.1358 18.1276V21.8826H68.7476V10.6147L71.1358 10.2057V17.4595L73.3248 13.8931H75.914L73.5237 17.7848L75.914 21.8826ZM64.5778 15.8286C63.7666 15.8286 63.4851 16.2844 63.4851 16.8512V18.9223C63.4851 19.4913 63.7666 19.9476 64.5778 19.9476C65.388 19.9476 65.6746 19.4908 65.6746 18.9223V16.8512C65.6746 16.2844 65.388 15.8286 64.5778 15.8286ZM77.2775 20.4816C77.6796 20.4816 78 20.8185 78 21.2392C78 21.6666 77.6796 22 77.2741 22C76.8717 22 76.5446 21.6663 76.5446 21.2392C76.5446 20.8185 76.8717 20.4816 77.2741 20.4816H77.2775ZM77.2736 20.5995C76.9501 20.5995 76.6849 20.8857 76.6849 21.2397C76.6849 21.5998 76.95 21.8831 77.2775 21.8831C77.6044 21.8865 77.8662 21.5998 77.8662 21.2429C77.8662 20.8862 77.6044 20.5995 77.2775 20.5995H77.2736ZM77.1362 21.6809H77.0058V20.835C77.0742 20.8249 77.1396 20.8153 77.2376 20.8153C77.3625 20.8153 77.4439 20.8417 77.4932 20.879C77.5422 20.9164 77.5679 20.9734 77.5679 21.0543C77.5679 21.1653 77.4965 21.2327 77.4084 21.2599V21.2666C77.4802 21.2802 77.5294 21.3467 77.5453 21.4713C77.565 21.603 77.5847 21.6537 77.5979 21.6809H77.4605C77.4408 21.6542 77.4206 21.5761 77.405 21.4656C77.3853 21.3573 77.3332 21.3168 77.2277 21.3168H77.1364V21.6809H77.1362ZM77.1362 21.2125H77.2313C77.3387 21.2125 77.4307 21.1719 77.4307 21.0676C77.4307 20.993 77.3781 20.9191 77.2313 20.9191C77.1886 20.9191 77.1585 20.9228 77.1362 20.9257V21.2125Z" fill="#26559A"/>
</svg>
