<svg width="96" height="31" viewBox="0 0 96 31" fill="none" xmlns="http://www.w3.org/2000/svg">
<rect width="96" height="31" rx="3" fill="white"/>
<rect x="0.5" y="0.5" width="95" height="30" rx="2.5" stroke="#5970FF" stroke-opacity="0.51"/>
<path d="M43.4454 16.3005C43.4454 19.1165 41.2424 21.1916 38.5389 21.1916C35.8353 21.1916 33.6323 19.1165 33.6323 16.3005C33.6323 13.4647 35.8353 11.4094 38.5389 11.4094C41.2424 11.4094 43.4454 13.4647 43.4454 16.3005ZM41.2975 16.3005C41.2975 14.5408 40.0207 13.3368 38.5389 13.3368C37.057 13.3368 35.7802 14.5408 35.7802 16.3005C35.7802 18.0426 37.057 19.2643 38.5389 19.2643C40.0207 19.2643 41.2975 18.0404 41.2975 16.3005Z" fill="#EA4335"/>
<path d="M54.0303 16.3005C54.0303 19.1165 51.8274 21.1916 49.1238 21.1916C46.4203 21.1916 44.2173 19.1165 44.2173 16.3005C44.2173 13.4669 46.4203 11.4094 49.1238 11.4094C51.8274 11.4094 54.0303 13.4647 54.0303 16.3005ZM51.8825 16.3005C51.8825 14.5408 50.6057 13.3368 49.1238 13.3368C47.6419 13.3368 46.3651 14.5408 46.3651 16.3005C46.3651 18.0426 47.6419 19.2643 49.1238 19.2643C50.6057 19.2643 51.8825 18.0404 51.8825 16.3005Z" fill="#FBBC05"/>
<path d="M64.1743 11.7049V20.486C64.1743 24.098 62.0441 25.5733 59.5258 25.5733C57.1552 25.5733 55.7284 23.9878 55.1904 22.6911L57.0604 21.9127C57.3934 22.7088 58.2093 23.6482 59.5236 23.6482C61.1355 23.6482 62.1345 22.6536 62.1345 20.7814V20.078H62.0595C61.5788 20.6712 60.6526 21.1894 59.4839 21.1894C57.0383 21.1894 54.7979 19.0592 54.7979 16.3182C54.7979 13.5573 57.0383 11.4094 59.4839 11.4094C60.6504 11.4094 61.5766 11.9276 62.0595 12.5032H62.1345V11.7071H64.1743V11.7049ZM62.2867 16.3182C62.2867 14.5959 61.1378 13.3368 59.6757 13.3368C58.1938 13.3368 56.9523 14.5959 56.9523 16.3182C56.9523 18.0228 58.1938 19.2643 59.6757 19.2643C61.1378 19.2643 62.2867 18.0228 62.2867 16.3182Z" fill="#4285F4"/>
<path d="M67.5373 6.55786V20.8915H65.4424V6.55786H67.5373Z" fill="#34A853"/>
<path d="M75.7006 17.9103L77.3677 19.0217C76.8297 19.8178 75.533 21.1894 73.2926 21.1894C70.514 21.1894 68.439 19.0416 68.439 16.2983C68.439 13.3897 70.5317 11.4072 73.0522 11.4072C75.5904 11.4072 76.8319 13.4272 77.2376 14.5187L77.4604 15.0744L70.922 17.7824C71.4226 18.7637 72.201 19.2643 73.2926 19.2643C74.3863 19.2643 75.1449 18.7262 75.7006 17.9103ZM70.5692 16.1506L74.9398 14.3357C74.6995 13.7249 73.9762 13.2993 73.125 13.2993C72.0334 13.2993 70.514 14.2629 70.5692 16.1506Z" fill="#EA4335"/>
<path d="M25.7027 15.028V12.9529H32.6953C32.7637 13.3146 32.799 13.7424 32.799 14.2055C32.799 15.7623 32.3734 17.6875 31.0018 19.0591C29.6676 20.4484 27.963 21.1893 25.7049 21.1893C21.5195 21.1893 18 17.7801 18 13.5946C18 9.40921 21.5195 6 25.7049 6C28.0203 6 29.6698 6.90853 30.9091 8.09272L29.4449 9.55696C28.5562 8.7234 27.3522 8.07508 25.7027 8.07508C22.6463 8.07508 20.2559 10.5383 20.2559 13.5946C20.2559 16.651 22.6463 19.1142 25.7027 19.1142C27.6852 19.1142 28.8142 18.3181 29.5375 17.5948C30.1241 17.0083 30.51 16.1703 30.6622 15.0258L25.7027 15.028Z" fill="#4285F4"/>
</svg>
