<svg width="76" height="93" viewBox="0 0 76 93" fill="none" xmlns="http://www.w3.org/2000/svg">
<path d="M59.9668 62.7647L53.3803 61.3974L61.7177 21.2862C62.0279 19.1831 61.5658 17.0387 60.4171 15.2499C49.9203 0.717884 32.8453 6.62076 30.2274 19.1769L22.7238 55.0276L16.1372 53.6519L24.5497 13.2823C24.9831 11.1939 25.8761 9.2282 27.1639 7.52793C28.4518 5.82767 30.102 4.43552 31.9949 3.45255C53.2052 -7.47776 71.0056 9.51383 67.3788 26.9306L59.9668 62.7647Z" fill="#E0E0E0"/>
<path d="M59.9671 62.7647C59.9671 62.7647 60.0089 62.5145 60.1089 62.0477C60.209 61.5808 60.3424 60.8721 60.5258 59.9633L62.1933 51.9844C62.9103 48.5244 63.7774 44.2974 64.7862 39.3866L66.4537 31.5328C66.9706 28.7481 67.8293 25.8301 67.8627 22.6785C67.9128 19.3793 67.2114 16.1119 65.8117 13.1239C65.6282 12.7404 65.4532 12.3402 65.2614 11.9566L64.5944 10.8311C64.1402 10.077 63.6419 9.35038 63.102 8.65505C62.8352 8.2882 62.5184 7.97138 62.2266 7.62954C61.9348 7.28771 61.6513 6.93755 61.3095 6.6374C60.6615 5.99136 59.9707 5.38971 59.2418 4.83652C57.7627 3.679 56.1437 2.71258 54.4228 1.96013L53.0805 1.45989L52.3218 1.20976L51.6214 1.02634L50.2124 0.659494C49.7288 0.551108 49.2453 0.501083 48.7617 0.417709C44.74 -0.181104 40.6311 0.34406 36.8893 1.93512C33.9187 3.19731 31.2601 5.09384 29.0998 7.49181C26.9395 9.88978 25.3297 12.7312 24.3832 15.8169C23.7746 17.9429 23.3827 20.169 22.9075 22.3867C21.0566 31.2827 19.1307 40.4955 17.1714 49.9001C16.9046 51.159 16.6461 52.4013 16.3877 53.6602L16.2626 53.4685L22.8492 54.8442L22.6657 54.9692C24.1498 47.8407 25.6088 40.8624 27.0178 34.1258C27.7237 30.7408 28.4213 27.4058 29.1105 24.1209L30.1277 19.2352C30.4848 17.6214 31.0687 16.0663 31.8619 14.6163C33.4689 11.8178 35.8879 9.5733 38.7986 8.17981C39.1571 8.0214 39.4989 7.82964 39.8741 7.70458L40.9746 7.32106C41.7122 7.09928 42.4644 6.92934 43.2257 6.81248C43.9819 6.69757 44.7453 6.63628 45.5102 6.62906C45.8853 6.62906 46.2688 6.62906 46.644 6.67908H47.2026L47.7613 6.77079C49.2286 6.97076 50.6602 7.37779 52.0133 7.97972C53.3207 8.58181 54.5452 9.34959 55.6567 10.2642C57.7822 12.0585 59.4005 14.3782 60.3507 16.9924C61.2685 19.4391 61.5357 22.082 61.1261 24.6628L60.976 25.5883C60.9176 25.8884 60.8509 26.1886 60.7925 26.4887L60.4174 28.2729C60.1673 29.4485 59.9255 30.599 59.6921 31.7329C58.7416 36.2518 57.8662 40.4121 57.0824 44.1556C55.4983 51.6593 54.2644 57.4954 53.4473 61.4057L53.4056 61.3473L58.4081 62.4062L59.6253 62.673L60.0255 62.7647L59.6337 62.6896L58.4248 62.4562L53.4223 61.439V61.389L56.9741 44.1306C57.7494 40.3788 58.6415 36.2184 59.5503 31.6912C59.7837 30.5657 60.0256 29.4068 60.2673 28.2312C60.3841 27.6476 60.5091 27.0473 60.6341 26.4554C60.7008 26.1552 60.7592 25.8551 60.8259 25.5466C60.8926 25.2381 60.9176 24.938 60.9676 24.6378C61.3671 22.0952 61.0999 19.4925 60.1923 17.0841C59.2517 14.5129 57.6534 12.2333 55.5567 10.4726C54.4573 9.57357 53.2468 8.81979 51.9549 8.22984C50.6267 7.64449 49.2238 7.24607 47.7862 7.04593L47.236 6.96256H46.6774C46.3105 6.96256 45.9437 6.91253 45.5685 6.96256C44.0597 6.97958 42.5608 7.20974 41.1163 7.64622L40.0325 8.02974C39.6735 8.16475 39.3227 8.32064 38.982 8.49663C36.1226 9.86375 33.7489 12.0716 32.1787 14.8247C31.4071 16.2453 30.8454 17.7702 30.5112 19.3519C30.1777 20.9694 29.8386 22.5979 29.494 24.2376C28.8104 27.5225 28.1156 30.8575 27.4097 34.2425L23.0659 55.0859V55.2443H22.9075L16.321 53.8687H16.1709V53.7103C16.4294 52.468 16.6878 51.2091 16.9546 49.9501C18.9222 40.5205 20.8398 31.3077 22.699 22.4367C23.1743 20.2107 23.5328 18.0013 24.1831 15.8335C24.8603 13.7146 25.8283 11.7 27.0595 9.84729C29.4989 6.26443 32.9209 3.46203 36.9143 1.7767C40.7046 0.169876 44.8653 -0.358144 48.9368 0.250961C49.4287 0.334335 49.9206 0.392697 50.4042 0.492746L52.0717 0.92629L52.9638 1.20976L54.2977 1.71L54.9147 1.96847C56.5459 2.70771 58.0826 3.6398 59.4919 4.74481C60.2228 5.311 60.9188 5.92074 61.5763 6.5707C61.8393 6.85693 62.0897 7.15458 62.3266 7.4628C62.6185 7.81297 62.9436 8.12979 63.2021 8.49663C63.7511 9.20243 64.2578 9.94019 64.7195 10.706L65.3864 11.8399C65.5865 12.2318 65.7533 12.6737 65.9451 13.0238C67.3511 16.0479 68.0496 19.3525 67.9877 22.6869C67.9877 25.8717 67.079 28.7982 66.5537 31.5912C66.0284 34.3842 65.4115 37.0105 64.8862 39.47C63.8524 44.3807 62.952 48.6411 62.2266 52.0678C61.5012 55.4945 60.926 58.1958 60.5591 60.0133L60.1172 62.0727C60.0255 62.5396 59.9671 62.7647 59.9671 62.7647Z" fill="#263238"/>
<path d="M13.2954 28.6794L72.1359 40.9397C72.9455 41.1084 73.6549 41.5918 74.1081 42.2836C74.5613 42.9753 74.7211 43.8188 74.5524 44.6284L65.2564 89.2423C65.1031 89.9783 64.6637 90.6233 64.0348 91.0353C63.4059 91.4473 62.6391 91.5926 61.9031 91.4392L2.78515 79.1211L13.2954 28.6794Z" fill="#455A64"/>
<g opacity="0.3">
<path d="M13.3262 28.7271L71.8565 40.9227C72.7484 41.1085 73.5299 41.641 74.0291 42.4031C74.5283 43.1651 74.7044 44.0943 74.5186 44.9862L65.3519 88.9798C65.1814 89.7981 64.6928 90.5151 63.9936 90.9731C63.2945 91.4311 62.442 91.5927 61.6237 91.4222L2.81592 79.1687L13.3262 28.7271Z" fill="black"/>
</g>
<path d="M13.7963 28.7857L64.5481 39.3606C65.427 39.5437 66.1972 40.0685 66.6891 40.8194C67.1811 41.5704 67.3546 42.486 67.1715 43.3649L58.1969 86.4362C57.9714 87.5186 57.3251 88.467 56.4003 89.0729C55.4755 89.6788 54.3479 89.8924 53.2655 89.6669L3.42786 79.2825C2.97768 79.1887 2.55036 79.0071 2.17035 78.7482C1.79033 78.4893 1.46506 78.158 1.21306 77.7734C0.961063 77.3887 0.78728 76.9582 0.701664 76.5064C0.616049 76.0546 0.620268 75.5903 0.71407 75.1401L9.82466 31.4159C10.0066 30.5426 10.5258 29.7764 11.2695 29.2839C12.0133 28.7914 12.9213 28.6124 13.7963 28.7857Z" fill="#455A64"/>
<g opacity="0.3">
<path d="M42.8251 56.5367C43.0218 55.5939 43.0273 54.6212 42.8411 53.6763C42.655 52.7313 42.281 51.8334 41.7414 51.0357C41.2018 50.2379 40.5076 49.5567 39.6998 49.0322C38.8921 48.5077 37.9872 48.1508 37.0389 47.9825C35.2093 47.681 33.3336 48.0883 31.7938 49.1216C30.2541 50.1548 29.1661 51.7362 28.7516 53.5435C28.423 55.0807 28.6081 56.6832 29.2783 58.105C29.9486 59.5268 31.0669 60.6893 32.4617 61.414L25.8335 70.1766L37.931 72.928L36.2636 62.2144C37.8274 62.115 39.3157 61.5061 40.5007 60.4807C41.6856 59.4554 42.5021 58.07 42.8251 56.5367Z" fill="black"/>
</g>
<path d="M58.3993 85.7927C58.3159 85.7927 60.1168 76.9885 62.4179 66.1665C64.719 55.3446 66.6616 46.5737 66.745 46.5904C66.8284 46.607 65.0275 55.403 62.7264 66.2416C60.4253 77.0802 58.4826 85.8094 58.3993 85.7927Z" fill="#263238"/>
<path d="M54.2975 38.8448C54.2975 38.9282 46.5188 37.4858 36.9641 35.6266C27.4095 33.7673 19.664 32.1916 19.6807 32.1082C19.6974 32.0248 27.4595 33.4589 37.0225 35.3181C46.5855 37.1773 54.3142 38.7281 54.2975 38.8448Z" fill="white"/>
<path d="M27.7262 57.3453C27.7262 57.3453 27.6262 57.1785 27.5261 56.845C27.3829 56.3759 27.2934 55.892 27.2593 55.4027C27.1275 53.7689 27.4907 52.1332 28.3015 50.7087C29.1263 49.2931 30.3541 48.1553 31.8282 47.4404C32.2718 47.2281 32.7354 47.0605 33.2122 46.9402C33.3849 46.8864 33.565 46.8611 33.7458 46.8652C33.7458 46.9235 33.0038 47.0736 31.9283 47.6405C30.5294 48.3774 29.3688 49.4968 28.582 50.8682C27.7952 52.2396 27.4145 53.8064 27.4845 55.386C27.5262 56.6032 27.7846 57.3286 27.7262 57.3453Z" fill="white"/>
<path d="M29.8106 61.239C29.7522 61.3057 29.3687 61.0472 28.9769 60.6637C28.585 60.2802 28.2849 59.9217 28.3432 59.83C28.4016 59.7383 28.7851 60.0301 29.177 60.4053C29.5688 60.7805 29.869 61.239 29.8106 61.239Z" fill="white"/>
<path d="M47.6109 1.82669C47.6109 1.82669 47.1774 1.82669 46.3937 1.74332C45.2823 1.67383 44.1671 1.69334 43.0587 1.80168C39.4103 2.13147 35.9305 3.49054 33.0243 5.72075C30.1181 7.95095 27.905 10.9606 26.6424 14.3995C26.2555 15.4353 25.9516 16.5003 25.7336 17.5843C25.5836 18.3514 25.5169 18.7849 25.4919 18.7849C25.4793 18.6797 25.4793 18.5733 25.4919 18.4681C25.4919 18.2597 25.4919 17.9512 25.6003 17.5593C25.7781 16.4577 26.0572 15.3748 26.434 14.3244C27.6599 10.8098 29.8869 7.7304 32.8408 5.46538C35.7946 3.20037 39.3464 1.84862 43.0587 1.57657C44.1694 1.48708 45.2862 1.50383 46.3937 1.62659C46.7855 1.62659 47.0857 1.72664 47.2941 1.75166C47.4027 1.76141 47.5094 1.78668 47.6109 1.82669Z" fill="white"/>
<path d="M24.0998 24.1709C24.0789 23.5388 24.1634 22.9076 24.3499 22.3033C24.4327 21.6794 24.6186 21.0736 24.9002 20.5107C24.926 21.1397 24.8443 21.7685 24.6584 22.37C24.5759 22.9977 24.387 23.6067 24.0998 24.1709Z" fill="white"/>
</svg>
