<svg width="579" height="576" viewBox="0 0 579 576" fill="none" xmlns="http://www.w3.org/2000/svg">
<path d="M100.611 330.981H440.055V383.637H100.611V330.981Z" fill="#7CE3E1"/>
<path d="M126.179 220.725C153.462 239.623 137.911 281.088 156.586 341.924C163.128 363.223 180.236 418.941 222.35 446.271C281.126 484.409 333.679 431.616 452.733 449.769C502.03 457.288 578.473 479.371 578.176 502.399C577.626 544.802 317.218 564.767 226.258 571.744C122.362 579.719 98.8766 574.675 77.2065 560.331C-23.1254 493.893 -21.1811 269.744 57.1011 223.398C76.486 211.92 107.069 207.484 126.179 220.725Z" fill="#4761FF"/>
<path d="M457.106 97.9779H457.994C484.76 97.9779 506.538 76.2004 506.538 49.4317V48.5462C506.538 21.7774 484.76 0 457.994 0H457.106C430.337 0 408.562 21.7774 408.562 48.5462V49.4317C408.562 76.2004 430.337 97.9779 457.106 97.9779ZM457.994 2.00202C483.652 2.00202 504.525 22.8775 504.525 48.5352V49.4207C504.525 75.0784 483.652 95.9538 457.994 95.9538H457.106C431.448 95.9538 410.575 75.0784 410.575 49.4207V48.5352C410.575 22.8775 431.448 2.00202 457.106 2.00202H457.994Z" fill="black"/>
<path d="M450.775 78.4445L421.595 45.5488L432.323 37.5434L450.506 58.0394L482.571 20.0505L493.505 27.8194L450.775 78.4445Z" fill="#7CE3E1"/>
<path d="M400.392 454.601C400.392 454.601 435.614 483.919 438.175 494.226C440.735 504.533 365.156 477.894 365.156 477.894L369.479 453.3L400.392 454.601Z" fill="black"/>
<path d="M434.921 493.805C436.926 493.805 437.553 493.445 437.946 493.214C438.063 493.149 438.166 493.062 438.248 492.957C438.331 492.853 438.392 492.733 438.428 492.604C438.463 492.476 438.473 492.341 438.457 492.209C438.44 492.077 438.398 491.949 438.331 491.833C438.265 491.718 438.176 491.616 438.071 491.535C437.965 491.454 437.844 491.395 437.715 491.361C437.586 491.327 437.452 491.319 437.319 491.337C437.187 491.355 437.06 491.4 436.945 491.468C432.578 493.979 390.869 482.076 365.602 473.986C365.346 473.905 365.069 473.928 364.831 474.051C364.593 474.174 364.414 474.387 364.332 474.642C364.251 474.897 364.275 475.174 364.398 475.412C364.521 475.65 364.733 475.83 364.988 475.911C365.153 475.963 381.648 481.235 398.709 485.993C421.804 492.422 430.997 493.805 434.921 493.805Z" fill="white"/>
<path d="M401.585 466.759C401.819 466.759 402.044 466.677 402.223 466.528L408.587 461.303C408.785 461.131 408.908 460.888 408.93 460.627C408.952 460.365 408.871 460.106 408.704 459.903C408.538 459.701 408.298 459.571 408.038 459.542C407.777 459.514 407.515 459.588 407.308 459.749L400.945 464.974C400.784 465.106 400.668 465.284 400.613 465.484C400.557 465.685 400.565 465.897 400.636 466.093C400.706 466.288 400.835 466.457 401.005 466.576C401.175 466.696 401.378 466.759 401.585 466.759Z" fill="white"/>
<path d="M408.535 473.189C408.781 473.189 409.019 473.099 409.203 472.936L415.853 467.051C416.045 466.872 416.16 466.625 416.173 466.362C416.186 466.1 416.096 465.843 415.922 465.646C415.748 465.449 415.503 465.328 415.241 465.309C414.979 465.29 414.72 465.374 414.519 465.544L407.869 471.429C407.716 471.564 407.608 471.743 407.559 471.941C407.511 472.139 407.523 472.347 407.595 472.538C407.667 472.729 407.796 472.894 407.964 473.01C408.132 473.126 408.331 473.188 408.535 473.189Z" fill="white"/>
<path fill-rule="evenodd" clip-rule="evenodd" d="M407.757 275.792C407.757 275.792 402.257 273.366 400.332 272.896C381.631 268.345 323.763 264.781 323.763 264.781L323.664 261.376L243.842 258.695L236.174 272.896C236.174 272.896 227.795 292.971 233.452 310.552C239.109 328.133 253.527 331.524 262.555 331.972C269.037 332.297 326.436 332.156 358.256 332.052L351.849 460.725H420.729L431.132 313.5C431.845 305.531 429.951 297.546 425.735 290.746C421.52 283.946 415.211 278.698 407.757 275.792Z" fill="#FFB64F"/>
<path fill-rule="evenodd" clip-rule="evenodd" d="M280.807 295.892L272.612 460.728H341.492L358.275 294.979L280.807 295.892Z" fill="#FFB64F"/>
<path d="M480.827 96.3966C477.772 93.9793 473.647 98.8386 473.314 99.2401C473.62 98.8688 476.994 94.6145 473.116 93.245C471.04 92.5108 468.414 92.97 465.449 97.7001C461.354 104.218 457.911 109.949 457.911 109.949C458.739 105.601 460.018 101.351 461.726 97.2683C463.315 93.498 461.107 91.7215 460.037 91.5235C457.386 91.034 455.522 91.6748 452.183 98.5443C448.845 105.414 447.376 109.599 447.376 109.599C447.376 109.599 429.869 110.246 424.001 112.668C421.658 113.636 420.11 117.965 419.092 122.811C417.992 128.019 413.298 164.248 410.636 173.471C419.917 176.552 429.259 179.445 438.719 181.933C440.485 182.398 444.64 182.758 444.64 182.758C444.64 182.758 446.394 148.155 447.255 136.64C447.408 134.836 448.036 133.105 449.075 131.622C450.114 130.139 451.527 128.958 453.17 128.198C460.595 124.694 472.39 119.747 473.193 118.779C475.701 115.754 479.243 109.261 481.317 102.279C482.497 98.3628 481.878 97.2243 480.827 96.3966Z" fill="#FFAE99"/>
<path d="M456.168 115.383C456.383 115.383 456.592 115.314 456.765 115.187C456.938 115.06 457.066 114.881 457.131 114.676L459.881 105.791C459.96 105.536 459.934 105.259 459.81 105.023C459.685 104.786 459.472 104.609 459.216 104.53C458.961 104.451 458.685 104.476 458.448 104.601C458.212 104.726 458.035 104.939 457.956 105.194L455.206 114.077C455.126 114.332 455.152 114.608 455.276 114.844C455.4 115.08 455.613 115.257 455.868 115.336C455.965 115.368 456.066 115.384 456.168 115.383Z" fill="black"/>
<path fill-rule="evenodd" clip-rule="evenodd" d="M417.431 121.689L405.386 160.073C400.527 150.85 380.674 123.944 368.555 114.566C353.174 102.664 321.945 101.454 321.945 101.454C321.945 101.454 295.025 100.819 288.359 101.344C277.18 102.229 236.213 104.149 220.708 130.027C209.433 148.829 189.138 187.725 197.256 213.179C204.725 236.601 243.778 229.767 243.778 229.767C243.778 229.767 239.813 266.499 240.088 266.486C240.088 266.486 315.477 271.161 314.545 270.905C314.517 270.905 314.473 270.8 314.413 270.63L365.822 268.518L366.803 214.986C367.186 241.224 398.979 245.959 409.596 241.224C444.607 225.623 447.198 178.606 462.045 135.942L417.431 121.689Z" fill="black"/>
<path d="M318.403 271.68C318.661 271.68 318.909 271.581 319.096 271.403C319.283 271.226 319.395 270.984 319.409 270.726C324.403 175.716 315.633 108.178 315.545 107.507C315.527 107.376 315.484 107.249 315.417 107.135C315.35 107.021 315.261 106.921 315.156 106.841C315.05 106.761 314.93 106.703 314.802 106.669C314.674 106.636 314.541 106.628 314.41 106.646C314.279 106.664 314.152 106.708 314.038 106.775C313.924 106.841 313.824 106.93 313.744 107.036C313.664 107.141 313.606 107.261 313.572 107.389C313.539 107.517 313.531 107.651 313.549 107.782C313.637 108.453 322.382 175.82 317.399 270.633C317.391 270.765 317.41 270.897 317.454 271.021C317.498 271.146 317.566 271.261 317.655 271.359C317.743 271.457 317.85 271.537 317.97 271.593C318.089 271.65 318.218 271.682 318.35 271.689L318.403 271.68Z" fill="white"/>
<path fill-rule="evenodd" clip-rule="evenodd" d="M329.486 164.759C329.486 166.803 330.687 168.458 332.172 168.458C333.657 168.458 334.859 166.808 334.859 164.759C334.859 162.711 333.655 161.061 332.172 161.061C330.69 161.061 329.486 162.716 329.486 164.759Z" fill="#FCF8F7"/>
<path d="M328.696 253.36C327.212 253.36 326.009 251.704 326.009 249.661C326.009 247.618 327.212 245.962 328.696 245.962C330.18 245.962 331.383 247.618 331.383 249.661C331.383 251.704 330.18 253.36 328.696 253.36Z" fill="#FCF8F7"/>
<path fill-rule="evenodd" clip-rule="evenodd" d="M328.696 204.948C328.696 206.992 329.901 208.647 331.383 208.647C332.865 208.647 334.07 206.997 334.07 204.948C334.07 202.9 332.865 201.25 331.383 201.25C329.901 201.25 328.696 202.908 328.696 204.948Z" fill="#FCF8F7"/>
<path d="M366.886 225.912C367.148 225.912 367.401 225.809 367.589 225.626C367.777 225.442 367.886 225.193 367.892 224.93C367.892 224.462 369.053 177.83 365.744 146.788C365.73 146.657 365.69 146.529 365.627 146.413C365.564 146.297 365.478 146.195 365.375 146.112C365.272 146.029 365.154 145.967 365.027 145.929C364.9 145.892 364.767 145.88 364.636 145.894C364.505 145.908 364.377 145.948 364.261 146.012C364.145 146.075 364.043 146.16 363.96 146.263C363.877 146.366 363.815 146.484 363.777 146.611C363.74 146.738 363.728 146.871 363.742 147.003C367.042 177.91 365.893 224.413 365.879 224.878C365.876 225.01 365.899 225.141 365.946 225.265C365.994 225.388 366.065 225.501 366.156 225.597C366.247 225.693 366.357 225.769 366.477 225.823C366.598 225.877 366.729 225.906 366.861 225.909L366.886 225.912Z" fill="white"/>
<path d="M396.119 184.417C396.32 184.417 396.517 184.356 396.684 184.243C396.85 184.129 396.979 183.969 397.054 183.781L406.321 160.445C406.42 160.196 406.415 159.919 406.309 159.674C406.203 159.429 406.004 159.236 405.756 159.137C405.508 159.039 405.23 159.043 404.985 159.149C404.74 159.255 404.547 159.454 404.448 159.702L395.189 183.036C395.089 183.283 395.091 183.559 395.194 183.804C395.297 184.049 395.493 184.244 395.739 184.345C395.86 184.393 395.989 184.417 396.119 184.417Z" fill="white"/>
<path d="M391.452 167.081C391.621 167.081 391.788 167.039 391.936 166.957L401.239 161.858C401.355 161.795 401.457 161.709 401.54 161.606C401.623 161.503 401.684 161.384 401.721 161.257C401.758 161.131 401.77 160.998 401.756 160.866C401.741 160.735 401.701 160.607 401.638 160.491C401.574 160.376 401.488 160.273 401.385 160.191C401.282 160.108 401.164 160.046 401.037 160.009C400.91 159.972 400.777 159.96 400.646 159.975C400.514 159.989 400.387 160.029 400.271 160.093L390.97 165.191C390.774 165.299 390.62 165.468 390.531 165.673C390.442 165.878 390.423 166.107 390.479 166.324C390.534 166.54 390.66 166.732 390.837 166.869C391.014 167.006 391.231 167.081 391.454 167.081H391.452Z" fill="white"/>
<path fill-rule="evenodd" clip-rule="evenodd" d="M283.813 201.021L285.639 179.948C287.949 172.902 293.298 166.077 296.576 163.948C303.577 159.394 326.966 161.039 327.134 164.773C327.302 168.508 305.39 172.096 305.39 172.096C305.39 172.096 323.716 179.247 323.853 182.767C323.991 186.287 317.77 186.438 317.77 186.438C317.77 186.438 320.663 190.64 318.667 193.434C316.67 196.228 315.144 196.148 315.144 196.148C315.144 196.148 319.464 200.039 314.382 201.054C309.3 202.069 298.792 198.516 298.792 198.516C298.792 198.516 292.951 213.174 281.849 213.174L283.813 201.021Z" fill="#FFAE99"/>
<path d="M251.478 182.819C251.713 182.818 251.939 182.734 252.119 182.584C252.299 182.433 252.42 182.225 252.463 181.994L259.28 147.66C259.318 147.404 259.256 147.143 259.106 146.931C258.957 146.72 258.732 146.573 258.478 146.523C258.224 146.472 257.961 146.521 257.742 146.66C257.523 146.798 257.366 147.015 257.303 147.267L250.488 181.601C250.436 181.863 250.491 182.135 250.639 182.357C250.788 182.579 251.018 182.733 251.28 182.786C251.345 182.802 251.411 182.813 251.478 182.819Z" fill="white"/>
<path d="M243.77 230.774H243.817L279.732 229.124C279.97 229.113 280.196 229.019 280.371 228.857C280.545 228.695 280.657 228.477 280.686 228.241L286.64 180.061C286.658 179.911 286.643 179.76 286.595 179.617C286.548 179.474 286.469 179.344 286.365 179.236C286.263 179.128 286.139 179.044 286.001 178.991C285.863 178.937 285.715 178.914 285.567 178.925L234.607 182.384C234.34 182.402 234.092 182.525 233.916 182.726C233.74 182.928 233.651 183.19 233.669 183.457C233.687 183.723 233.81 183.972 234.011 184.148C234.212 184.324 234.475 184.412 234.742 184.395L284.492 181.048L278.791 227.177L243.726 228.777C243.468 228.795 243.227 228.912 243.052 229.103C242.878 229.294 242.784 229.545 242.789 229.803C242.795 230.062 242.9 230.308 243.083 230.492C243.265 230.675 243.511 230.781 243.77 230.788V230.774Z" fill="white"/>
<path d="M354.612 333.072C354.867 333.071 355.112 332.974 355.298 332.8C355.485 332.626 355.598 332.388 355.616 332.134L356.928 313.572C358.421 296.879 348.546 280.948 332.912 274.854L332.843 274.829L314.844 269.266C314.589 269.187 314.313 269.213 314.077 269.338C313.841 269.463 313.664 269.676 313.585 269.931C313.506 270.187 313.532 270.463 313.657 270.699C313.782 270.935 313.995 271.112 314.25 271.191L332.213 276.749C339.44 279.604 345.553 284.714 349.643 291.32C353.734 297.927 355.585 305.676 354.92 313.418L353.609 332C353.59 332.266 353.678 332.528 353.853 332.729C354.028 332.931 354.275 333.055 354.541 333.075L354.612 333.072Z" fill="black"/>
<path d="M358.245 333.058C358.444 333.058 358.638 332.999 358.804 332.888C358.969 332.777 359.098 332.62 359.175 332.437L369.099 308.649C369.202 308.402 369.202 308.125 369.1 307.879C368.999 307.632 368.803 307.436 368.556 307.333C368.31 307.231 368.033 307.23 367.786 307.332C367.539 307.434 367.343 307.63 367.24 307.876L357.316 331.675C357.252 331.828 357.227 331.994 357.243 332.159C357.258 332.324 357.315 332.483 357.407 332.621C357.499 332.759 357.624 332.872 357.77 332.95C357.916 333.028 358.079 333.069 358.245 333.069V333.058Z" fill="black"/>
<path d="M278.365 333.058C278.632 333.058 278.888 332.952 279.077 332.763C279.266 332.575 279.372 332.319 279.372 332.052V308.866C279.372 308.599 279.266 308.343 279.077 308.155C278.888 307.966 278.632 307.86 278.365 307.86C278.098 307.86 277.842 307.966 277.653 308.155C277.465 308.343 277.359 308.599 277.359 308.866V332.052C277.359 332.319 277.465 332.575 277.653 332.763C277.842 332.952 278.098 333.058 278.365 333.058Z" fill="black"/>
<path d="M310.296 23.5018C309.526 25.5384 308.989 27.6556 308.695 29.8131C308.695 29.8131 310.642 26.2464 310.296 23.5018Z" fill="black"/>
<path d="M323.372 42.2458C322.547 40.56 321.788 39.1245 321.186 38.03C320.807 37.3359 320.215 36.7814 319.498 36.4479C318.781 36.1143 317.976 36.0192 317.201 36.1765C310.958 37.4525 296.873 41.8498 293.364 44.4485C289.44 47.3553 293.155 60.1539 297.439 67.8705C297.856 68.6219 298.184 69.4193 298.416 70.2465L294.263 74.8968L286.723 96.2425L314.558 107.647L317.828 104.825L322.228 84.4256C337.68 76.5468 328.96 53.6419 323.372 42.2458Z" fill="#FFAE99"/>
<path d="M319.054 51.0514C319.193 51.0518 319.331 51.0235 319.458 50.9681C319.585 50.9127 319.7 50.8315 319.794 50.7296C319.822 50.6994 321.505 48.9449 323.386 49.5994C323.511 49.6463 323.645 49.6677 323.779 49.6622C323.913 49.6568 324.044 49.6247 324.166 49.5677C324.287 49.5108 324.396 49.4302 324.486 49.3306C324.575 49.2311 324.644 49.1146 324.688 48.988C324.733 48.8615 324.751 48.7273 324.743 48.5936C324.734 48.4598 324.699 48.329 324.64 48.2089C324.58 48.0889 324.497 47.9819 324.395 47.8944C324.294 47.8068 324.176 47.7404 324.049 47.6991C320.905 46.5991 318.416 49.2529 318.315 49.3656C318.225 49.4628 318.155 49.5767 318.11 49.7009C318.064 49.825 318.044 49.957 318.049 50.0891C318.055 50.2212 318.087 50.3509 318.143 50.4707C318.199 50.5906 318.278 50.6982 318.375 50.7874C318.56 50.9585 318.803 51.053 319.054 51.0514Z" fill="black"/>
<path d="M305.813 57.4454C306.044 57.4449 306.267 57.3654 306.446 57.2204C306.625 57.0753 306.749 56.8732 306.798 56.6479C306.875 56.3069 307.656 53.3478 311.748 54.0051C311.878 54.0259 312.012 54.0207 312.14 53.9899C312.269 53.9592 312.39 53.9034 312.497 53.8257C312.604 53.7481 312.695 53.6502 312.764 53.5375C312.833 53.4248 312.879 53.2996 312.9 53.1691C312.921 53.0385 312.916 52.9052 312.885 52.7766C312.854 52.6481 312.798 52.5268 312.721 52.4198C312.643 52.3128 312.545 52.2222 312.432 52.153C312.32 52.0839 312.195 52.0376 312.064 52.0168C307.191 51.2468 305.206 54.4368 304.834 56.2326C304.781 56.4944 304.833 56.7668 304.98 56.99C305.127 57.2133 305.356 57.3691 305.618 57.4234C305.682 57.437 305.748 57.4443 305.813 57.4454Z" fill="black"/>
<path d="M309.388 59.6618C309.196 59.1531 308.97 58.6471 308.838 58.1191C308.632 57.7011 308.929 57.1456 309.355 56.9696C309.422 56.9461 309.491 56.9313 309.562 56.9256C309.694 56.8717 309.84 56.8648 309.977 56.9058C310.113 56.9468 310.232 57.0334 310.312 57.1511C310.312 57.1676 310.332 57.1896 310.343 57.2088C310.404 57.2748 310.458 57.3477 310.502 57.4261C310.741 57.9182 310.955 58.4221 311.143 58.9358C311.366 59.4858 311.586 59.9011 311.344 60.4978C311.257 60.6855 311.104 60.8339 310.913 60.9139C310.723 60.9938 310.51 60.9994 310.315 60.9296C309.716 60.6738 309.589 60.2146 309.388 59.6618Z" fill="black"/>
<path d="M322.902 54.8629C322.692 54.3583 322.509 53.8434 322.352 53.3201C322.145 52.9021 322.445 52.3466 322.869 52.1706C322.935 52.1472 323.005 52.1324 323.075 52.1266C323.207 52.072 323.353 52.0643 323.49 52.1049C323.627 52.1455 323.745 52.2318 323.826 52.3494L323.856 52.4099C323.919 52.4745 323.973 52.5476 324.016 52.6271C324.256 53.1185 324.47 53.6225 324.656 54.1369C324.882 54.6869 325.102 55.1022 324.857 55.6989C324.77 55.8861 324.617 56.0339 324.426 56.1133C324.236 56.1927 324.023 56.1979 323.829 56.1279C323.237 55.8749 323.111 55.4157 322.902 54.8629Z" fill="black"/>
<path d="M318.389 73.4173C320.248 73.4173 321.81 72.0945 322.514 71.1458C322.668 70.9324 322.732 70.6673 322.692 70.4074C322.653 70.1474 322.513 69.9132 322.304 69.7548C322.094 69.5963 321.83 69.5263 321.57 69.5596C321.309 69.5929 321.071 69.7269 320.908 69.933C320.727 70.1695 319.093 72.1963 317.237 71.0495C316.01 70.2933 316.354 68.5168 316.368 68.4425C316.415 68.1844 316.36 67.9181 316.214 67.7001C316.068 67.4822 315.842 67.33 315.586 67.2758C315.329 67.2217 315.061 67.2699 314.839 67.4103C314.618 67.5507 314.46 67.772 314.399 68.0273C314.371 68.1593 313.739 71.2558 316.178 72.7628C316.838 73.1867 317.605 73.4137 318.389 73.4173Z" fill="black"/>
<path d="M325.479 67.6697C325.679 67.6697 325.874 67.6101 326.04 67.4984C326.207 67.3867 326.336 67.2281 326.411 67.0427C326.59 66.6082 328.097 62.7114 326.359 60.3822C325.473 59.1969 323.994 59.0072 322.561 58.8009C320.938 58.5782 319.404 58.3691 318.384 56.9611C316.58 54.4861 318.934 51.1861 318.958 51.1421C319.116 50.9266 319.182 50.6571 319.141 50.3931C319.101 50.129 318.957 49.892 318.741 49.7341C318.526 49.5762 318.256 49.5104 317.992 49.5511C317.728 49.5918 317.491 49.7358 317.333 49.9513C317.201 50.1356 314.085 54.4586 316.753 58.1436C318.279 60.2474 320.501 60.5527 322.291 60.7947C323.391 60.9459 324.365 61.0697 324.744 61.5867C325.647 62.7912 324.885 65.4367 324.547 66.2865C324.487 66.4387 324.465 66.6033 324.483 66.766C324.501 66.9286 324.558 67.0844 324.65 67.2198C324.742 67.3553 324.865 67.4663 325.01 67.5432C325.154 67.6202 325.315 67.6608 325.479 67.6615V67.6697Z" fill="black"/>
<path d="M312.342 84.0545C312.071 84.0004 311.79 84.021 311.53 84.1143C311.27 84.2076 311.04 84.37 310.866 84.5841C310.691 84.7981 310.578 85.0557 310.538 85.3292C310.499 85.6026 310.535 85.8817 310.642 86.1363L319.055 99.0614L322.421 84.1755L312.342 84.0545Z" fill="#EA8165"/>
<path d="M330.926 22.7069C330.063 14.1818 318.125 12.5318 313.827 17.3883C312.201 19.2226 310.397 22.4456 310.296 23.5016C310.1 21.9589 309.196 20.6774 306.789 20.4326C300.129 19.7561 298.993 29.0319 298.993 29.0319C298.993 29.0319 281.693 27.1482 273.536 44.2011C267.151 57.5524 274.911 69.6773 290.765 84.7612C290.765 84.7612 297.027 81.1861 298.773 74.3331C299.287 72.3146 298.641 70.0348 297.439 67.8705C295.826 64.9078 294.497 61.7993 293.468 58.5865C296.009 57.5634 297.868 54.3982 297.868 50.6471C297.868 47.6221 296.667 44.9931 294.874 43.5438C299.854 40.9285 311.649 37.315 317.209 36.1765C317.984 36.0192 318.789 36.1143 319.507 36.4479C320.224 36.7814 320.815 37.3359 321.194 38.03C321.796 39.13 322.555 40.56 323.38 42.2458C325.393 39.3885 331.663 29.8762 330.926 22.7069Z" fill="#1A1A1A"/>
<path d="M300.847 72.793C299.114 74.993 295.347 75.1608 292.44 73.1753C289.533 71.1898 288.571 67.7962 290.303 65.599C292.036 63.4017 295.803 63.2284 298.71 65.214C301.617 67.1995 302.579 70.593 300.847 72.793Z" fill="#FFAE99"/>
<path d="M299.964 71.6299C300.084 71.6303 300.203 71.6089 300.316 71.5666C300.566 71.4727 300.768 71.2838 300.879 71.041C300.99 70.7983 301 70.5216 300.907 70.2714C299.166 65.5963 294.153 65.3213 291.75 65.8218C291.62 65.8489 291.497 65.9012 291.388 65.9758C291.279 66.0504 291.185 66.1457 291.113 66.2564C291.04 66.3671 290.991 66.491 290.966 66.621C290.942 66.751 290.943 66.8845 290.97 67.014C290.997 67.1434 291.049 67.2663 291.124 67.3756C291.198 67.4848 291.294 67.5783 291.405 67.6507C291.515 67.7231 291.639 67.773 291.769 67.7975C291.899 67.822 292.033 67.8207 292.162 67.7936C292.393 67.7469 297.453 66.7678 299.021 70.9754C299.093 71.1674 299.222 71.3329 299.39 71.4498C299.559 71.5668 299.759 71.6296 299.964 71.6299Z" fill="black"/>
<path fill-rule="evenodd" clip-rule="evenodd" d="M330.924 103.362L321.639 87.6268L313.838 104.784L290.22 86.3013L276.913 102.419L301.729 128.124L314.547 107.639L328.952 126.54L330.924 103.362Z" fill="black"/>
<path d="M301.729 129.13C301.772 129.133 301.814 129.133 301.856 129.13C302.004 129.112 302.147 129.061 302.273 128.981C302.399 128.9 302.506 128.792 302.585 128.665L314.63 109.415L328.152 127.147C328.275 127.309 328.444 127.43 328.637 127.494C328.83 127.558 329.038 127.562 329.233 127.505C329.428 127.449 329.602 127.334 329.731 127.177C329.86 127.02 329.938 126.827 329.956 126.625L331.927 104.075C331.942 103.941 331.93 103.806 331.892 103.678C331.854 103.549 331.791 103.43 331.706 103.326C331.621 103.222 331.516 103.136 331.397 103.074C331.279 103.011 331.149 102.973 331.015 102.961C330.882 102.949 330.747 102.964 330.619 103.005C330.491 103.046 330.373 103.112 330.271 103.2C330.17 103.287 330.086 103.394 330.027 103.514C329.967 103.634 329.931 103.765 329.923 103.899L328.176 123.858L315.348 107.026C315.249 106.896 315.121 106.793 314.973 106.724C314.826 106.656 314.665 106.624 314.502 106.631C314.34 106.639 314.182 106.686 314.042 106.768C313.902 106.85 313.784 106.965 313.698 107.103L301.534 126.54L279.061 105.07C278.967 104.972 278.854 104.895 278.729 104.842C278.604 104.789 278.469 104.761 278.334 104.762C278.198 104.762 278.064 104.79 277.939 104.843C277.814 104.897 277.702 104.975 277.608 105.073C277.514 105.171 277.441 105.288 277.393 105.415C277.346 105.542 277.324 105.677 277.33 105.813C277.336 105.948 277.37 106.082 277.428 106.204C277.487 106.326 277.57 106.436 277.672 106.525L301.047 128.85C301.231 129.026 301.475 129.126 301.729 129.13Z" fill="black"/>
<path d="M308.013 172.998C308.251 172.999 308.481 172.915 308.663 172.763C308.845 172.61 308.967 172.398 309.007 172.163C309.048 171.929 309.004 171.689 308.884 171.483C308.764 171.278 308.575 171.122 308.351 171.043L301.564 168.626C301.313 168.536 301.036 168.55 300.794 168.665C300.553 168.779 300.367 168.985 300.277 169.236C300.188 169.488 300.202 169.765 300.316 170.006C300.431 170.248 300.636 170.434 300.888 170.523L307.675 172.941C307.784 172.978 307.898 172.998 308.013 172.998Z" fill="black"/>
<path d="M319.682 188.289C319.911 188.287 320.134 188.207 320.312 188.061C320.49 187.916 320.612 187.714 320.659 187.489C320.707 187.264 320.676 187.03 320.571 186.825C320.467 186.62 320.296 186.458 320.086 186.364L301.829 178.35C301.584 178.243 301.307 178.237 301.058 178.334C300.809 178.432 300.609 178.624 300.502 178.868C300.394 179.113 300.389 179.39 300.486 179.639C300.583 179.888 300.775 180.088 301.02 180.195L319.288 188.198C319.412 188.254 319.546 188.285 319.682 188.289Z" fill="black"/>
<path d="M316.294 197.699C316.526 197.703 316.752 197.627 316.934 197.484C317.116 197.34 317.243 197.138 317.294 196.912C317.344 196.685 317.315 196.449 317.211 196.241C317.107 196.034 316.934 195.869 316.723 195.774L300.33 188.11C300.21 188.051 300.079 188.017 299.946 188.009C299.812 188.002 299.679 188.021 299.553 188.065C299.427 188.11 299.311 188.179 299.212 188.269C299.113 188.358 299.033 188.467 298.976 188.588C298.92 188.709 298.888 188.84 298.882 188.974C298.877 189.107 298.898 189.24 298.945 189.366C298.991 189.491 299.062 189.605 299.154 189.703C299.245 189.8 299.355 189.879 299.477 189.933L315.867 197.598C316 197.663 316.146 197.698 316.294 197.699Z" fill="black"/>
<path d="M464.979 118.581C465.173 118.582 465.363 118.526 465.526 118.42C465.69 118.315 465.818 118.164 465.898 117.987C466.505 116.64 475.583 98.1485 475.674 97.9642C475.792 97.7246 475.81 97.448 475.724 97.1953C475.637 96.9426 475.454 96.7345 475.215 96.6167C474.975 96.4989 474.699 96.4811 474.446 96.5672C474.193 96.6534 473.985 96.8364 473.867 97.076C473.493 97.8377 464.682 115.776 464.063 117.151C463.994 117.304 463.964 117.472 463.976 117.64C463.989 117.808 464.043 117.969 464.134 118.111C464.225 118.252 464.35 118.368 464.498 118.448C464.646 118.529 464.811 118.57 464.979 118.57V118.581Z" fill="black"/>
<path d="M472.979 121.119C473.169 121.12 473.356 121.066 473.517 120.964C473.678 120.862 473.807 120.717 473.889 120.545L482.992 101.349C483.106 101.108 483.12 100.831 483.03 100.579C482.941 100.328 482.755 100.122 482.513 100.007C482.272 99.8929 481.995 99.8789 481.743 99.9687C481.491 100.058 481.286 100.244 481.171 100.486L472.071 119.681C472.014 119.801 471.982 119.93 471.975 120.062C471.968 120.194 471.988 120.327 472.032 120.451C472.077 120.576 472.145 120.691 472.234 120.789C472.323 120.887 472.43 120.966 472.55 121.023C472.684 121.087 472.83 121.12 472.979 121.119Z" fill="black"/>
<path d="M301.729 129.13H301.837C301.989 129.114 302.135 129.064 302.265 128.983C302.394 128.902 302.504 128.792 302.585 128.663L314.63 109.413L328.152 127.147C328.275 127.309 328.444 127.43 328.637 127.494C328.83 127.558 329.038 127.562 329.233 127.505C329.428 127.449 329.602 127.334 329.731 127.177C329.86 127.02 329.938 126.827 329.956 126.625L332.021 102.34C332.037 102.206 332.025 102.07 331.987 101.94C331.95 101.811 331.886 101.69 331.801 101.586C331.716 101.481 331.61 101.395 331.491 101.332C331.372 101.269 331.241 101.231 331.107 101.22C330.972 101.208 330.837 101.224 330.709 101.266C330.581 101.308 330.462 101.375 330.36 101.463C330.259 101.552 330.176 101.66 330.117 101.781C330.058 101.902 330.023 102.034 330.016 102.169L328.171 123.847L315.348 107.02C315.249 106.891 315.121 106.787 314.974 106.719C314.826 106.65 314.665 106.618 314.502 106.626C314.34 106.633 314.182 106.68 314.042 106.762C313.902 106.844 313.784 106.959 313.698 107.097L301.562 126.49L277.637 101.713C277.451 101.523 277.197 101.414 276.932 101.41C276.666 101.406 276.41 101.508 276.219 101.692C276.027 101.876 275.917 102.129 275.911 102.394C275.905 102.66 276.004 102.917 276.187 103.11L301.003 128.814C301.097 128.913 301.209 128.992 301.334 129.047C301.459 129.101 301.593 129.129 301.729 129.13Z" fill="white"/>
</svg>
