<svg width="96" height="31" viewBox="0 0 96 31" fill="none" xmlns="http://www.w3.org/2000/svg">
<rect width="96" height="31" rx="3" fill="white"/>
<rect x="0.5" y="0.5" width="95" height="30" rx="2.5" stroke="#5970FF" stroke-opacity="0.51"/>
<path d="M73.5368 21.1223C74.6384 21.1223 75.4188 20.9234 76.0002 20.495V18.5518C75.4035 18.9649 74.6843 19.225 73.6745 19.225C71.9762 19.225 71.2723 17.9092 71.2723 15.8283C71.2723 13.6403 72.1292 12.5234 73.6898 12.5234C74.6078 12.5234 75.5106 12.8447 75.9849 13.1507V11.1311C75.48 10.8556 74.6078 10.6567 73.4144 10.6567C70.3696 10.6567 68.7936 12.8447 68.7936 15.9048C68.8089 19.2556 70.3543 21.1223 73.5368 21.1223ZM58.6494 20.2349V18.2917C57.9149 18.7966 56.6603 19.2403 55.5128 19.2403C53.7685 19.2403 53.1106 18.4141 53.0035 16.7311H58.7565V15.4764C58.7565 11.9726 57.2111 10.6567 54.8395 10.6567C51.9324 10.6567 50.5554 12.8753 50.5554 15.9201C50.5554 19.424 52.2843 21.1223 55.3139 21.1223C56.8286 21.1223 57.9456 20.7092 58.6494 20.2349ZM36.8155 10.8403V14.8185H33.633V10.8403H31.2461V20.9234H33.633V16.7158H36.8155V20.9234H39.2024V10.8403H36.8155ZM49.9587 19.0261H48.9029V10.8403H41.9565V11.6972C41.9565 14.1606 41.8035 17.3431 40.9619 19.0261H40.1969V23.2185H42.4002V20.9234H47.7401V23.2185H49.9434V19.0261H49.9587ZM66.2537 20.9234H68.9619L65.1368 15.4917L68.5029 10.8403H66.1007L62.7346 15.4917V10.8403H60.3477V20.9234H62.7346V15.966L66.2537 20.9234ZM54.7783 12.5234C55.9565 12.5234 56.3237 13.5026 56.3237 14.7726V14.9715H53.0035C53.0647 13.3649 53.6461 12.5234 54.7783 12.5234ZM46.516 19.0261H43.1499C43.8078 17.5114 43.9915 14.7573 43.9915 13.013V12.707H46.516V19.0261Z" fill="black"/>
<path d="M29.2568 20.9235H26.824V8.88197H25.7377C23.7486 8.88197 22.7082 9.8765 22.7082 11.3607C22.7082 13.0437 23.4273 13.824 24.9115 14.8186L26.1355 15.6448L22.6164 20.9235H20L23.1672 16.2109C21.3464 14.9104 20.3213 13.6404 20.3213 11.4984C20.3213 8.82077 22.188 7 25.7224 7H29.2415V20.9235H29.2568Z" fill="#FC3F1D"/>
</svg>
